<svg width="1920" height="1081" viewBox="0 0 1920 1081" fill="none" xmlns="http://www.w3.org/2000/svg">
<g clip-path="url(#clip0_106_137)">
<rect width="1920" height="1080.03" fill="#1A1A1A"/>
<circle cx="1470" cy="1109" r="998" fill="#6031FF"/>
<rect x="1074.5" y="527.502" width="746" height="450" rx="38" transform="rotate(-45 1074.5 527.502)" fill="#3D3D3D"/>
<mask id="mask0_106_137" style="mask-type:alpha" maskUnits="userSpaceOnUse" x="1116" y="41" width="764" height="764">
<rect x="1114.81" y="531.038" width="694" height="389" rx="3" transform="rotate(-45 1114.81 531.038)" fill="#8F8F8F"/>
</mask>
<g mask="url(#mask0_106_137)">
<rect x="1114.81" y="531.038" width="694" height="389" rx="3" transform="rotate(-45 1114.81 531.038)" fill="white"/>
<g filter="url(#filter0_d_106_137)">
<rect x="1114.81" y="531.038" width="694" height="40" transform="rotate(-45 1114.81 531.038)" fill="#ECECEC"/>
<rect x="1138.85" y="521.138" width="19" height="19" transform="rotate(-45 1138.85 521.138)" fill="white"/>
<circle cx="1174.91" cy="498.511" r="9.5" transform="rotate(-45 1174.91 498.511)" fill="white"/>
<path d="M1189.05 470.934L1210.26 476.591L1194.71 492.147L1189.05 470.934Z" fill="white"/>
<rect x="1152.28" y="506.289" width="608" height="22" rx="10" transform="rotate(-45 1152.28 506.289)" fill="white"/>
<path fill-rule="evenodd" clip-rule="evenodd" d="M1577.69 99.6037L1578.16 100.067L1578.15 105.923L1576.4 105.923L1576.4 100.067L1576.86 99.6037L1576.87 99.2812C1575.62 99.1874 1574.41 98.6657 1573.47 97.7219C1571.36 95.6173 1571.36 92.2055 1573.47 90.101C1575.57 87.9964 1578.98 87.9964 1581.09 90.101C1583.19 92.2055 1583.19 95.6173 1581.09 97.7219C1580.14 98.6657 1578.93 99.1874 1577.69 99.2812L1577.69 99.6037ZM1574.64 91.2734C1573.18 92.733 1573.18 95.0897 1574.64 96.5494C1576.1 98.0091 1578.45 98.0091 1579.91 96.5494C1581.37 95.0897 1581.37 92.7331 1579.91 91.2734C1578.45 89.8137 1576.1 89.8137 1574.64 91.2734Z" fill="#949494"/>
<path d="M1335.69 342.678L1329.95 339.625L1330.72 338.854L1333.96 340.694L1335.16 341.377C1335.13 341.319 1334.9 340.941 1334.48 340.242L1332.61 336.965L1333.37 336.198L1336.58 338.092L1337.64 338.713L1337.05 337.611L1335.26 334.313L1335.98 333.588L1339.01 339.364L1338.23 340.138L1334.9 338.203L1333.98 337.623L1336.47 341.899L1335.69 342.678ZM1341.82 336.546L1336.08 333.493L1336.85 332.722L1340.09 334.562L1341.29 335.245C1341.26 335.187 1341.03 334.809 1340.61 334.11L1338.74 330.833L1339.5 330.066L1342.71 331.96L1343.78 332.581L1343.18 331.479L1341.39 328.181L1342.11 327.456L1345.14 333.232L1344.36 334.006L1341.03 332.072L1340.11 331.491L1342.6 335.767L1341.82 336.546ZM1347.96 330.414L1342.21 327.361L1342.98 326.59L1346.22 328.43L1347.43 329.113C1347.39 329.055 1347.16 328.677 1346.75 327.978L1344.87 324.701L1345.64 323.934L1348.85 325.828L1349.91 326.449L1349.31 325.347L1347.52 322.049L1348.25 321.324L1351.27 327.1L1350.5 327.874L1347.16 325.94L1346.24 325.36L1348.73 329.635L1347.96 330.414ZM1353.01 325.355L1352.17 324.506L1353.01 323.657L1353.86 324.506L1353.01 325.355ZM1356.42 318.722L1357.25 318.084C1357.68 318.67 1357.87 319.272 1357.82 319.891C1357.78 320.504 1357.52 321.051 1357.04 321.531C1356.44 322.133 1355.75 322.422 1354.99 322.397C1354.24 322.367 1353.49 321.984 1352.75 321.249C1352.28 320.774 1351.94 320.28 1351.74 319.766C1351.54 319.252 1351.52 318.747 1351.66 318.25C1351.8 317.747 1352.06 317.307 1352.44 316.928C1352.92 316.45 1353.43 316.181 1353.98 316.12C1354.52 316.057 1355.06 316.204 1355.59 316.564L1354.98 317.4C1354.61 317.174 1354.27 317.075 1353.94 317.102C1353.62 317.127 1353.33 317.264 1353.08 317.512C1352.71 317.888 1352.54 318.329 1352.58 318.834C1352.61 319.337 1352.92 319.879 1353.5 320.462C1354.09 321.053 1354.63 321.37 1355.13 321.411C1355.62 321.453 1356.05 321.291 1356.42 320.926C1356.71 320.634 1356.86 320.299 1356.88 319.924C1356.9 319.548 1356.74 319.148 1356.42 318.722ZM1356.93 317.04C1356.12 316.225 1355.74 315.395 1355.8 314.55C1355.85 313.846 1356.15 313.221 1356.69 312.677C1357.3 312.072 1357.99 311.777 1358.77 311.791C1359.55 311.802 1360.29 312.157 1360.99 312.855C1361.56 313.422 1361.92 313.953 1362.07 314.451C1362.23 314.942 1362.23 315.441 1362.08 315.946C1361.94 316.449 1361.68 316.892 1361.29 317.276C1360.68 317.892 1359.98 318.193 1359.2 318.179C1358.43 318.163 1357.67 317.783 1356.93 317.04ZM1357.7 316.274C1358.26 316.837 1358.81 317.137 1359.33 317.173C1359.86 317.206 1360.31 317.036 1360.68 316.663C1361.05 316.293 1361.22 315.844 1361.18 315.316C1361.14 314.789 1360.84 314.236 1360.26 313.659C1359.72 313.115 1359.18 312.828 1358.65 312.797C1358.13 312.761 1357.68 312.927 1357.31 313.295C1356.94 313.667 1356.77 314.116 1356.8 314.641C1356.83 315.166 1357.13 315.71 1357.7 316.274ZM1364.13 314.239L1359.73 309.839L1360.4 309.168L1361.03 309.794C1360.87 308.987 1361.09 308.279 1361.7 307.668C1361.97 307.403 1362.26 307.208 1362.58 307.084C1362.89 306.954 1363.19 306.911 1363.45 306.955C1363.72 307 1363.98 307.106 1364.23 307.274C1364.4 307.385 1364.66 307.613 1365 307.958L1367.71 310.664L1366.96 311.409L1364.28 308.733C1363.98 308.429 1363.72 308.232 1363.52 308.14C1363.31 308.046 1363.08 308.03 1362.85 308.091C1362.61 308.146 1362.39 308.273 1362.19 308.472C1361.87 308.79 1361.7 309.165 1361.67 309.599C1361.64 310.03 1361.91 310.527 1362.47 311.09L1364.88 313.493L1364.13 314.239ZM1368.85 309.516L1364.45 305.116L1365.13 304.445L1365.75 305.07C1365.59 304.264 1365.82 303.555 1366.43 302.945C1366.69 302.68 1366.98 302.485 1367.3 302.361C1367.62 302.231 1367.91 302.188 1368.17 302.232C1368.44 302.276 1368.7 302.383 1368.96 302.551C1369.12 302.662 1369.38 302.89 1369.72 303.235L1372.43 305.94L1371.68 306.686L1369.01 304.01C1368.7 303.706 1368.45 303.508 1368.24 303.417C1368.03 303.323 1367.81 303.307 1367.57 303.367C1367.33 303.423 1367.11 303.55 1366.91 303.749C1366.6 304.066 1366.42 304.442 1366.39 304.876C1366.37 305.306 1366.63 305.804 1367.2 306.367L1369.6 308.77L1368.85 309.516ZM1375.17 300.364L1376.04 299.688C1376.37 300.26 1376.49 300.835 1376.41 301.412C1376.33 301.989 1376.04 302.533 1375.52 303.044C1374.88 303.688 1374.17 304.001 1373.4 303.985C1372.63 303.963 1371.88 303.594 1371.17 302.879C1370.43 302.138 1370.04 301.373 1370.01 300.583C1369.99 299.793 1370.28 299.094 1370.88 298.487C1371.47 297.898 1372.15 297.618 1372.93 297.646C1373.7 297.673 1374.45 298.05 1375.18 298.777C1375.22 298.821 1375.29 298.889 1375.37 298.98L1372.09 302.261C1372.6 302.717 1373.11 302.95 1373.61 302.961C1374.11 302.972 1374.55 302.794 1374.92 302.427C1375.19 302.153 1375.35 301.848 1375.4 301.511C1375.45 301.174 1375.37 300.792 1375.17 300.364ZM1371.52 301.607L1373.97 299.15C1373.57 298.813 1373.2 298.629 1372.86 298.599C1372.34 298.549 1371.88 298.713 1371.51 299.092C1371.16 299.434 1370.99 299.837 1370.98 300.301C1370.98 300.763 1371.16 301.198 1371.52 301.607ZM1377.8 300.567L1377.12 296.672L1373.52 296.046L1374.46 295.114L1376.16 295.47C1376.49 295.54 1376.75 295.602 1376.96 295.657C1376.9 295.353 1376.85 295.08 1376.81 294.837L1376.51 293.055L1377.41 292.164L1377.96 295.756L1381.92 296.448L1381.01 297.364L1378.74 296.9L1378.13 296.771L1378.71 299.663L1377.8 300.567ZM1385.43 292.943L1384.78 292.297C1384.94 293.136 1384.72 293.85 1384.13 294.439C1383.87 294.698 1383.58 294.892 1383.25 295.019C1382.93 295.143 1382.64 295.186 1382.38 295.147C1382.12 295.103 1381.86 294.994 1381.59 294.82C1381.42 294.704 1381.17 294.487 1380.85 294.17L1378.13 291.443L1378.87 290.698L1381.31 293.138C1381.7 293.527 1381.98 293.775 1382.15 293.879C1382.39 294.029 1382.64 294.084 1382.91 294.045C1383.17 294.004 1383.41 293.871 1383.64 293.647C1383.86 293.424 1384.01 293.157 1384.1 292.848C1384.18 292.536 1384.16 292.242 1384.04 291.965C1383.93 291.684 1383.68 291.355 1383.31 290.979L1380.95 288.622L1381.69 287.876L1386.09 292.276L1385.43 292.943ZM1385.65 290.088L1386.28 289.235C1386.61 289.489 1386.95 289.601 1387.3 289.571C1387.65 289.537 1387.99 289.351 1388.33 289.011C1388.67 288.669 1388.86 288.346 1388.89 288.042C1388.91 287.735 1388.83 287.488 1388.64 287.3C1388.47 287.132 1388.27 287.072 1388.02 287.122C1387.86 287.158 1387.52 287.328 1387.01 287.632C1386.32 288.04 1385.83 288.301 1385.51 288.415C1385.2 288.522 1384.9 288.543 1384.61 288.477C1384.33 288.405 1384.08 288.261 1383.86 288.046C1383.66 287.85 1383.53 287.625 1383.45 287.371C1383.37 287.111 1383.36 286.848 1383.4 286.583C1383.43 286.382 1383.52 286.152 1383.66 285.896C1383.8 285.633 1383.98 285.387 1384.21 285.158C1384.56 284.813 1384.91 284.56 1385.27 284.4C1385.63 284.237 1385.96 284.179 1386.26 284.226C1386.55 284.27 1386.86 284.411 1387.19 284.648L1386.56 285.477C1386.3 285.284 1386.03 285.204 1385.74 285.237C1385.46 285.267 1385.17 285.427 1384.88 285.717C1384.54 286.06 1384.35 286.361 1384.32 286.621C1384.28 286.88 1384.34 287.086 1384.49 287.238C1384.59 287.335 1384.71 287.391 1384.85 287.408C1384.99 287.427 1385.15 287.398 1385.33 287.321C1385.43 287.274 1385.72 287.118 1386.18 286.853C1386.85 286.466 1387.33 286.215 1387.63 286.099C1387.93 285.977 1388.22 285.942 1388.51 285.995C1388.8 286.047 1389.08 286.201 1389.33 286.455C1389.58 286.703 1389.74 287.011 1389.81 287.379C1389.89 287.741 1389.85 288.119 1389.7 288.514C1389.54 288.906 1389.29 289.275 1388.95 289.62C1388.38 290.192 1387.82 290.51 1387.28 290.573C1386.75 290.634 1386.2 290.472 1385.65 290.088ZM1391.72 286.65L1390.87 285.8L1391.72 284.951L1392.57 285.8L1391.72 286.65ZM1395.13 280.016L1395.96 279.378C1396.38 279.964 1396.57 280.566 1396.53 281.185C1396.49 281.798 1396.22 282.345 1395.74 282.825C1395.14 283.428 1394.46 283.716 1393.7 283.691C1392.94 283.661 1392.19 283.278 1391.46 282.544C1390.98 282.069 1390.65 281.574 1390.45 281.06C1390.25 280.547 1390.22 280.041 1390.37 279.544C1390.51 279.041 1390.77 278.601 1391.15 278.222C1391.63 277.744 1392.14 277.475 1392.69 277.414C1393.23 277.351 1393.77 277.499 1394.3 277.858L1393.68 278.695C1393.32 278.468 1392.97 278.369 1392.65 278.396C1392.33 278.421 1392.04 278.558 1391.79 278.807C1391.42 279.182 1391.25 279.623 1391.28 280.128C1391.31 280.631 1391.62 281.174 1392.21 281.756C1392.8 282.348 1393.34 282.664 1393.83 282.705C1394.33 282.747 1394.76 282.585 1395.12 282.221C1395.41 281.928 1395.57 281.594 1395.59 281.218C1395.6 280.842 1395.45 280.442 1395.13 280.016ZM1395.64 278.334C1394.82 277.519 1394.44 276.689 1394.5 275.844C1394.56 275.14 1394.86 274.516 1395.4 273.971C1396 273.366 1396.7 273.071 1397.48 273.085C1398.26 273.096 1399 273.451 1399.7 274.15C1400.26 274.716 1400.62 275.248 1400.78 275.745C1400.93 276.236 1400.94 276.735 1400.79 277.24C1400.65 277.743 1400.38 278.186 1400 278.57C1399.38 279.186 1398.69 279.487 1397.91 279.474C1397.14 279.457 1396.38 279.077 1395.64 278.334ZM1396.4 277.568C1396.97 278.131 1397.51 278.431 1398.04 278.467C1398.56 278.5 1399.01 278.33 1399.39 277.957C1399.76 277.587 1399.92 277.138 1399.89 276.611C1399.85 276.083 1399.54 275.531 1398.97 274.953C1398.42 274.409 1397.89 274.122 1397.36 274.092C1396.83 274.056 1396.38 274.221 1396.02 274.589C1395.64 274.962 1395.47 275.41 1395.51 275.935C1395.54 276.46 1395.84 277.004 1396.4 277.568ZM1402.84 275.533L1398.44 271.133L1399.1 270.466L1399.72 271.084C1399.64 270.73 1399.65 270.374 1399.75 270.015C1399.85 269.653 1400.05 269.325 1400.34 269.033C1400.66 268.707 1401 268.508 1401.34 268.436C1401.69 268.362 1402.02 268.403 1402.35 268.56C1402.19 267.699 1402.38 266.989 1402.94 266.431C1403.38 265.994 1403.83 265.78 1404.31 265.789C1404.79 265.794 1405.28 266.048 1405.78 266.551L1408.8 269.571L1408.06 270.313L1405.29 267.541C1404.99 267.243 1404.75 267.054 1404.57 266.974C1404.39 266.888 1404.2 266.869 1403.99 266.916C1403.78 266.962 1403.59 267.072 1403.42 267.243C1403.11 267.552 1402.96 267.913 1402.96 268.324C1402.96 268.733 1403.19 269.164 1403.64 269.617L1406.2 272.173L1405.45 272.919L1402.59 270.06C1402.26 269.729 1401.95 269.541 1401.66 269.497C1401.38 269.453 1401.1 269.569 1400.82 269.845C1400.61 270.055 1400.47 270.305 1400.4 270.595C1400.33 270.882 1400.37 271.172 1400.5 271.465C1400.63 271.758 1400.9 272.104 1401.3 272.505L1403.58 274.788L1402.84 275.533ZM1410.12 268.254L1409.27 267.404L1410.12 266.555L1410.97 267.404L1410.12 268.254ZM1412.95 265.416L1412.26 266.108L1406.19 260.034L1406.93 259.288L1409.1 261.455C1409.02 260.745 1409.23 260.146 1409.71 259.657C1409.98 259.386 1410.3 259.186 1410.65 259.056C1411 258.921 1411.35 258.875 1411.7 258.919C1412.06 258.958 1412.42 259.072 1412.78 259.263C1413.15 259.454 1413.49 259.708 1413.81 260.025C1414.57 260.779 1414.96 261.549 1415 262.333C1415.04 263.118 1414.8 263.771 1414.28 264.293C1413.76 264.812 1413.13 265.003 1412.4 264.865L1412.95 265.416ZM1410.71 263.191C1411.24 263.718 1411.69 264.028 1412.07 264.119C1412.69 264.268 1413.2 264.142 1413.6 263.742C1413.93 263.416 1414.07 262.993 1414.02 262.474C1413.98 261.952 1413.67 261.411 1413.11 260.85C1412.54 260.275 1412 259.966 1411.5 259.922C1411 259.875 1410.58 260.013 1410.26 260.336C1409.94 260.662 1409.8 261.086 1409.84 261.608C1409.89 262.127 1410.18 262.655 1410.71 263.191ZM1416.98 261.388L1412.58 256.988L1413.25 256.317L1413.92 256.984C1413.78 256.501 1413.73 256.138 1413.77 255.895C1413.82 255.649 1413.93 255.439 1414.11 255.265C1414.36 255.013 1414.69 254.838 1415.11 254.739L1415.55 255.687C1415.26 255.762 1415.02 255.89 1414.84 256.073C1414.68 256.236 1414.58 256.432 1414.55 256.661C1414.52 256.888 1414.56 257.115 1414.68 257.345C1414.86 257.693 1415.11 258.024 1415.42 258.339L1417.73 260.643L1416.98 261.388Z" fill="#949494"/>
</g>
<path d="M1624.83 341.243C1629.11 356.047 1629.84 371.262 1623.95 384.837C1618.06 398.412 1635.07 405.583 1644.37 392.105C1653.66 378.627 1654.94 352.394 1647.73 337.521C1640.52 322.647 1620.54 326.438 1624.83 341.243Z" stroke="#25DD1F" stroke-width="6"/>
<path d="M1649.29 380.662L1626.95 377.071C1629.54 365.089 1628.11 352.609 1626.67 347.592L1651.03 349.445C1653.73 360.72 1651.04 375.18 1649.29 380.662Z" stroke="#25DD1F" stroke-width="4"/>
<ellipse cx="1.73449" cy="1.74688" rx="1.73449" ry="1.74688" transform="matrix(0.7476 -0.664179 0.664972 0.746842 1631.02 372.041)" fill="#25DD1F"/>
<ellipse cx="1.73449" cy="1.74688" rx="1.73449" ry="1.74688" transform="matrix(0.7476 -0.664179 0.664972 0.746842 1631.93 365.523)" fill="#25DD1F"/>
<ellipse cx="1.73449" cy="1.74688" rx="1.73449" ry="1.74688" transform="matrix(0.7476 -0.664179 0.664972 0.746842 1631.74 358.938)" fill="#25DD1F"/>
<ellipse cx="1.73449" cy="1.74688" rx="1.73449" ry="1.74688" transform="matrix(0.7476 -0.664179 0.664972 0.746842 1631.27 352.609)" fill="#25DD1F"/>
<ellipse cx="1.73449" cy="1.74688" rx="1.73449" ry="1.74688" transform="matrix(0.7476 -0.664179 0.664972 0.746842 1636.97 373.506)" fill="#25DD1F"/>
<ellipse cx="1.73449" cy="1.74688" rx="1.73449" ry="1.74688" transform="matrix(0.7476 -0.664179 0.664972 0.746842 1637.88 366.989)" fill="#25DD1F"/>
<ellipse cx="1.73449" cy="1.74688" rx="1.73449" ry="1.74688" transform="matrix(0.7476 -0.664179 0.664972 0.746842 1637.69 360.404)" fill="#25DD1F"/>
<ellipse cx="1.73449" cy="1.74688" rx="1.73449" ry="1.74688" transform="matrix(0.7476 -0.664179 0.664972 0.746842 1637.22 354.075)" fill="#25DD1F"/>
<ellipse cx="1.73449" cy="1.74688" rx="1.73449" ry="1.74688" transform="matrix(0.7476 -0.664179 0.664972 0.746842 1642.66 374.681)" fill="#25DD1F"/>
<ellipse cx="1.73449" cy="1.74688" rx="1.73449" ry="1.74688" transform="matrix(0.7476 -0.664179 0.664972 0.746842 1643.57 368.164)" fill="#25DD1F"/>
<ellipse cx="1.73449" cy="1.74688" rx="1.73449" ry="1.74688" transform="matrix(0.7476 -0.664179 0.664972 0.746842 1643.39 361.579)" fill="#25DD1F"/>
<ellipse cx="1.73449" cy="1.74688" rx="1.73449" ry="1.74688" transform="matrix(0.7476 -0.664179 0.664972 0.746842 1642.91 355.25)" fill="#25DD1F"/>
<path d="M1596.92 277.829C1584.21 271.908 1563.54 251.988 1582.54 219.677C1596.93 228.6 1619.95 252.723 1596.92 277.829Z" stroke="#25DD1F" stroke-width="10"/>
<path d="M1619.75 278.224C1617.25 264.426 1621.61 236.052 1658.97 232.947C1659.97 249.849 1653.54 282.567 1619.75 278.224Z" stroke="#25DD1F" stroke-width="10"/>
<path d="M1651.18 403.48C1674.1 380.564 1674.1 343.409 1651.18 320.492C1628.27 297.576 1591.11 297.576 1568.19 320.492C1545.28 343.409 1545.28 380.564 1568.19 403.48C1577.66 412.945 1589.55 418.501 1601.87 420.147C1602.48 421.961 1603.5 423.652 1604.93 425.082C1610.12 430.272 1618.75 430.053 1624.21 424.594C1626.19 422.616 1627.48 420.223 1628.07 417.727C1636.52 414.948 1644.46 410.199 1651.18 403.48Z" stroke="#25DD1F" stroke-width="15"/>
<path d="M1463.62 597.391C1453.93 606.836 1443.53 613.89 1432.41 618.553C1421.29 622.977 1409.99 625.189 1398.52 625.189C1387.16 625.069 1376.16 622.798 1365.52 618.374C1354.76 613.831 1345.07 607.255 1336.46 598.647C1327.86 590.038 1321.34 580.414 1316.92 569.773C1312.49 559.132 1310.28 548.193 1310.28 536.954C1310.28 525.476 1312.49 514.178 1316.92 503.059C1321.46 491.82 1328.51 481.419 1338.08 471.854L1352.6 457.328L1364.08 468.805L1350.09 482.794C1342.92 490.206 1337.48 498.396 1333.77 507.363C1330.07 516.091 1328.21 525.118 1328.21 534.443C1328.1 543.649 1329.83 552.676 1333.42 561.524C1337.12 570.251 1342.56 578.202 1349.74 585.376C1357.15 592.788 1365.22 598.348 1373.95 602.054C1382.67 605.521 1391.7 607.255 1401.03 607.255C1410.35 607.255 1419.44 605.462 1428.29 601.875C1437.13 598.049 1445.2 592.489 1452.5 585.196L1466.49 571.208L1478.14 582.865L1463.62 597.391Z" fill="#25DD1F"/>
<path d="M1489.07 571.938L1397.61 480.475L1410.16 467.921L1501.62 559.384L1489.07 571.938ZM1387.38 457.699C1384.99 460.09 1382 461.286 1378.42 461.286C1374.83 461.286 1371.84 460.09 1369.45 457.699C1366.94 455.188 1365.74 452.199 1365.86 448.732C1365.86 445.145 1367.06 442.156 1369.45 439.765C1371.96 437.254 1374.95 436.059 1378.42 436.178C1381.88 436.059 1384.87 437.254 1387.38 439.765C1389.78 442.156 1390.97 445.145 1390.97 448.732C1391.09 452.199 1389.89 455.188 1387.38 457.699Z" fill="#25DD1F"/>
<path d="M1539.55 521.46C1531.42 529.59 1522.69 533.655 1513.36 533.655C1504.16 533.536 1495.55 529.471 1487.54 521.46L1399.12 433.046L1411.68 420.492L1498.66 507.472C1503.92 512.732 1509.3 515.482 1514.8 515.721C1520.42 515.841 1525.86 513.27 1531.12 508.01L1548.69 490.435L1559.63 501.374L1539.55 521.46ZM1433.02 466.941L1422.08 456.002L1468.53 409.553L1479.47 420.492L1433.02 466.941Z" fill="#25DD1F"/>
<path d="M1571.18 489.831L1505.72 424.372C1497.59 416.242 1493.52 407.634 1493.52 398.547C1493.52 389.222 1497.59 380.494 1505.72 372.364L1521.5 356.582L1532.44 367.522L1519.17 380.793C1513.91 386.053 1511.34 391.493 1511.46 397.113C1511.7 402.612 1514.45 407.992 1519.71 413.253L1583.73 477.277L1571.18 489.831Z" fill="#25DD1F"/>
</g>
<rect x="1307.14" y="310.42" width="121" height="9" rx="4.5" transform="rotate(-45 1307.14 310.42)" fill="#1F1F1F"/>
<circle cx="1405.43" cy="218.496" r="4.5" transform="rotate(-45 1405.43 218.496)" fill="#1F1F1F"/>
<circle cx="1293" cy="330.926" r="4.5" transform="rotate(-45 1293 330.926)" fill="#1F1F1F"/>
<g filter="url(#filter1_di_106_137)">
<rect x="436.5" y="620.365" width="467" height="649" rx="38" transform="rotate(-45 436.5 620.365)" fill="url(#paint0_linear_106_137)"/>
<mask id="mask1_106_137" style="mask-type:alpha" maskUnits="userSpaceOnUse" x="478" y="331" width="707" height="708">
<rect x="476.805" y="623.901" width="415" height="588" rx="3" transform="rotate(-45 476.805 623.901)" fill="#1A1A1A"/>
</mask>
<g mask="url(#mask1_106_137)">
<rect x="476.805" y="623.901" width="415" height="588" rx="3" transform="rotate(-45 476.805 623.901)" fill="#25DD1F"/>
<g filter="url(#filter2_d_106_137)">
<rect x="476.805" y="623.901" width="415" height="40" transform="rotate(-45 476.805 623.901)" fill="#ECECEC"/>
<rect x="500.847" y="614.001" width="19" height="19" transform="rotate(-45 500.847 614.001)" fill="white"/>
<circle cx="536.909" cy="591.374" r="9.5" transform="rotate(-45 536.909 591.374)" fill="white"/>
<path d="M551.051 563.797L572.264 569.454L556.708 585.01L551.051 563.797Z" fill="white"/>
<rect x="415.287" y="698.147" width="608" height="22" rx="10" transform="rotate(-45 415.287 698.147)" fill="white"/>
<path d="M598.697 534.536L592.95 531.483L593.721 530.712L596.961 532.551L598.166 533.235C598.131 533.177 597.904 532.799 597.487 532.1L595.61 528.823L596.377 528.056L599.588 529.95L600.648 530.571L600.052 529.469L598.262 526.171L598.987 525.446L602.011 531.221L601.237 531.996L597.901 530.061L596.982 529.481L599.476 533.757L598.697 534.536ZM604.829 528.404L599.082 525.351L599.853 524.58L603.093 526.42L604.298 527.103C604.263 527.045 604.036 526.667 603.619 525.968L601.742 522.691L602.509 521.924L605.72 523.818L606.78 524.439L606.184 523.337L604.394 520.039L605.119 519.314L608.143 525.09L607.369 525.864L604.033 523.929L603.113 523.349L605.608 527.625L604.829 528.404ZM610.961 522.272L605.214 519.219L605.985 518.448L609.225 520.288L610.43 520.971C610.394 520.913 610.168 520.535 609.751 519.836L607.874 516.559L608.64 515.792L611.851 517.686L612.912 518.307L612.316 517.205L610.526 513.907L611.251 513.182L614.275 518.958L613.5 519.732L610.165 517.798L609.245 517.217L611.74 521.493L610.961 522.272ZM616.02 517.213L615.17 516.364L616.02 515.515L616.869 516.364L616.02 517.213ZM619.429 510.58L620.258 509.942C620.683 510.528 620.874 511.13 620.83 511.748C620.786 512.362 620.523 512.909 620.043 513.389C619.44 513.991 618.76 514.28 618 514.255C617.24 514.225 616.493 513.842 615.759 513.107C615.283 512.632 614.946 512.138 614.748 511.624C614.549 511.11 614.521 510.605 614.665 510.108C614.808 509.605 615.069 509.164 615.448 508.786C615.926 508.308 616.438 508.039 616.985 507.978C617.529 507.915 618.066 508.062 618.597 508.421L617.983 509.258C617.619 509.032 617.274 508.932 616.948 508.96C616.624 508.985 616.339 509.122 616.09 509.37C615.714 509.746 615.544 510.186 615.58 510.692C615.614 511.195 615.921 511.737 616.504 512.32C617.095 512.911 617.638 513.228 618.133 513.269C618.627 513.31 619.057 513.149 619.421 512.784C619.714 512.491 619.869 512.157 619.885 511.782C619.902 511.406 619.75 511.005 619.429 510.58ZM619.935 508.898C619.12 508.083 618.743 507.253 618.804 506.408C618.856 505.704 619.155 505.079 619.699 504.535C620.304 503.93 620.997 503.635 621.779 503.648C622.558 503.66 623.296 504.014 623.995 504.713C624.561 505.28 624.922 505.811 625.077 506.308C625.231 506.8 625.235 507.299 625.089 507.804C624.945 508.307 624.682 508.75 624.298 509.134C623.682 509.75 622.986 510.051 622.209 510.037C621.436 510.021 620.678 509.641 619.935 508.898ZM620.701 508.131C621.265 508.695 621.81 508.995 622.338 509.03C622.863 509.064 623.312 508.894 623.684 508.521C624.055 508.151 624.222 507.702 624.186 507.174C624.15 506.647 623.843 506.094 623.266 505.517C622.722 504.973 622.186 504.686 621.658 504.655C621.131 504.619 620.683 504.785 620.316 505.152C619.943 505.525 619.773 505.974 619.806 506.499C619.84 507.024 620.138 507.568 620.701 508.131ZM627.136 506.097L622.736 501.697L623.407 501.026L624.032 501.651C623.872 500.845 624.097 500.136 624.708 499.526C624.973 499.261 625.264 499.066 625.582 498.942C625.9 498.812 626.191 498.769 626.456 498.813C626.721 498.858 626.982 498.964 627.239 499.132C627.405 499.243 627.661 499.471 628.006 499.816L630.711 502.522L629.966 503.267L627.289 500.591C626.985 500.287 626.73 500.089 626.523 499.998C626.313 499.904 626.089 499.888 625.851 499.949C625.614 500.004 625.396 500.131 625.197 500.33C624.879 500.647 624.705 501.023 624.675 501.457C624.647 501.888 624.915 502.385 625.478 502.948L627.882 505.351L627.136 506.097ZM631.859 501.374L627.459 496.974L628.13 496.303L628.756 496.928C628.596 496.122 628.821 495.413 629.431 494.803C629.696 494.538 629.988 494.343 630.305 494.219C630.623 494.089 630.914 494.046 631.18 494.09C631.445 494.134 631.706 494.241 631.963 494.409C632.128 494.52 632.384 494.747 632.729 495.093L635.435 497.798L634.689 498.544L632.012 495.868C631.708 495.564 631.453 495.366 631.246 495.275C631.036 495.181 630.812 495.165 630.575 495.225C630.337 495.281 630.119 495.408 629.92 495.607C629.602 495.924 629.428 496.3 629.398 496.733C629.37 497.164 629.638 497.662 630.202 498.225L632.605 500.628L631.859 501.374ZM638.177 492.222L639.043 491.546C639.372 492.118 639.496 492.692 639.416 493.27C639.336 493.847 639.041 494.391 638.53 494.902C637.886 495.546 637.177 495.859 636.404 495.843C635.631 495.821 634.886 495.452 634.171 494.736C633.431 493.996 633.047 493.231 633.019 492.441C632.991 491.651 633.282 490.952 633.889 490.345C634.478 489.756 635.158 489.476 635.932 489.504C636.705 489.531 637.455 489.908 638.182 490.635C638.226 490.679 638.291 490.747 638.376 490.838L635.095 494.119C635.606 494.575 636.113 494.808 636.615 494.819C637.118 494.83 637.553 494.652 637.921 494.285C638.194 494.011 638.356 493.706 638.405 493.369C638.455 493.032 638.379 492.65 638.177 492.222ZM634.523 493.464L636.98 491.008C636.577 490.671 636.205 490.487 635.865 490.457C635.341 490.407 634.889 490.571 634.511 490.95C634.168 491.292 633.994 491.695 633.989 492.159C633.986 492.621 634.164 493.056 634.523 493.464ZM640.808 492.425L640.129 488.53L636.528 487.904L637.461 486.972L639.168 487.328C639.491 487.397 639.757 487.46 639.967 487.515C639.906 487.211 639.857 486.938 639.818 486.694L639.52 484.913L640.411 484.022L640.962 487.614L644.927 488.306L644.011 489.222L641.741 488.758L641.131 488.629L641.712 491.521L640.808 492.425ZM648.432 484.801L647.785 484.155C647.94 484.994 647.723 485.708 647.135 486.297C646.875 486.556 646.583 486.75 646.257 486.877C645.933 487.001 645.642 487.044 645.382 487.005C645.123 486.961 644.862 486.852 644.599 486.678C644.423 486.562 644.175 486.345 643.858 486.027L641.131 483.301L641.877 482.555L644.318 484.996C644.707 485.385 644.985 485.632 645.15 485.737C645.393 485.887 645.648 485.942 645.913 485.903C646.175 485.862 646.418 485.729 646.642 485.505C646.866 485.282 647.019 485.015 647.102 484.706C647.182 484.394 647.164 484.099 647.048 483.823C646.932 483.542 646.686 483.213 646.311 482.837L643.953 480.48L644.699 479.734L649.099 484.134L648.432 484.801ZM648.66 481.946L649.281 481.093C649.618 481.347 649.959 481.459 650.305 481.428C650.653 481.395 650.996 481.209 651.336 480.869C651.679 480.527 651.864 480.203 651.891 479.9C651.916 479.593 651.835 479.346 651.647 479.158C651.478 478.99 651.273 478.93 651.03 478.98C650.861 479.016 650.523 479.186 650.015 479.489C649.33 479.898 648.831 480.159 648.519 480.273C648.207 480.38 647.907 480.401 647.62 480.335C647.332 480.263 647.081 480.119 646.866 479.904C646.67 479.708 646.533 479.483 646.456 479.228C646.378 478.969 646.362 478.706 646.406 478.441C646.436 478.24 646.522 478.01 646.663 477.753C646.804 477.491 646.989 477.245 647.218 477.016C647.563 476.671 647.915 476.418 648.274 476.258C648.636 476.095 648.965 476.037 649.26 476.084C649.553 476.128 649.865 476.269 650.197 476.506L649.567 477.335C649.307 477.142 649.034 477.062 648.747 477.095C648.462 477.125 648.175 477.285 647.885 477.575C647.542 477.918 647.355 478.219 647.321 478.479C647.288 478.738 647.348 478.944 647.5 479.096C647.596 479.193 647.714 479.249 647.852 479.266C647.993 479.285 648.154 479.256 648.337 479.179C648.439 479.132 648.722 478.976 649.186 478.711C649.854 478.324 650.338 478.072 650.636 477.956C650.934 477.835 651.228 477.8 651.519 477.853C651.809 477.905 652.081 478.059 652.335 478.313C652.583 478.561 652.745 478.869 652.819 479.237C652.894 479.599 652.855 479.977 652.703 480.372C652.549 480.764 652.299 481.133 651.954 481.478C651.382 482.05 650.827 482.368 650.288 482.431C649.752 482.492 649.209 482.33 648.66 481.946ZM654.725 478.508L653.876 477.658L654.725 476.809L655.575 477.658L654.725 478.508ZM658.135 471.874L658.964 471.236C659.389 471.822 659.58 472.424 659.536 473.043C659.491 473.656 659.229 474.203 658.748 474.683C658.146 475.285 657.465 475.574 656.706 475.549C655.946 475.519 655.199 475.136 654.464 474.402C653.989 473.927 653.652 473.432 653.453 472.918C653.255 472.405 653.227 471.899 653.371 471.402C653.514 470.899 653.775 470.459 654.154 470.08C654.631 469.602 655.144 469.333 655.691 469.272C656.235 469.209 656.772 469.357 657.302 469.716L656.689 470.553C656.325 470.326 655.979 470.227 655.653 470.254C655.33 470.279 655.044 470.416 654.796 470.664C654.42 471.04 654.25 471.481 654.286 471.986C654.319 472.489 654.627 473.032 655.21 473.614C655.801 474.205 656.344 474.522 656.838 474.563C657.333 474.605 657.762 474.443 658.127 474.078C658.42 473.786 658.574 473.451 658.591 473.076C658.608 472.7 658.456 472.3 658.135 471.874ZM658.641 470.192C657.826 469.377 657.449 468.547 657.51 467.702C657.562 466.998 657.86 466.373 658.405 465.829C659.009 465.224 659.703 464.929 660.484 464.943C661.263 464.954 662.002 465.309 662.701 466.007C663.267 466.574 663.628 467.105 663.782 467.603C663.937 468.094 663.941 468.593 663.795 469.098C663.651 469.601 663.387 470.044 663.003 470.428C662.388 471.044 661.691 471.345 660.915 471.331C660.142 471.315 659.384 470.935 658.641 470.192ZM659.407 469.426C659.971 469.989 660.516 470.289 661.044 470.325C661.569 470.358 662.017 470.188 662.39 469.815C662.76 469.445 662.928 468.996 662.892 468.469C662.856 467.941 662.549 467.389 661.972 466.811C661.428 466.267 660.892 465.98 660.364 465.949C659.837 465.914 659.389 466.079 659.022 466.447C658.649 466.82 658.479 467.268 658.512 467.793C658.545 468.318 658.844 468.862 659.407 469.426ZM665.842 467.391L661.441 462.991L662.109 462.324L662.726 462.941C662.649 462.588 662.66 462.232 662.759 461.873C662.856 461.511 663.05 461.183 663.343 460.891C663.669 460.565 664.003 460.366 664.346 460.294C664.691 460.219 665.028 460.261 665.357 460.418C665.191 459.557 665.387 458.847 665.945 458.289C666.382 457.852 666.839 457.638 667.317 457.646C667.792 457.652 668.281 457.906 668.783 458.409L671.804 461.429L671.062 462.171L668.29 459.399C667.992 459.101 667.753 458.912 667.573 458.831C667.394 458.746 667.201 458.726 666.993 458.773C666.786 458.82 666.597 458.929 666.426 459.101C666.116 459.41 665.963 459.771 665.966 460.182C665.966 460.591 666.192 461.022 666.645 461.475L669.202 464.031L668.456 464.777L665.597 461.918C665.266 461.587 664.956 461.399 664.669 461.355C664.382 461.31 664.1 461.426 663.824 461.703C663.614 461.913 663.474 462.163 663.405 462.453C663.339 462.74 663.372 463.03 663.505 463.323C663.637 463.615 663.904 463.962 664.304 464.363L666.587 466.646L665.842 467.391ZM673.121 460.112L672.272 459.262L673.121 458.413L673.971 459.262L673.121 460.112ZM675.959 457.274L675.267 457.966L669.193 451.892L669.939 451.146L672.106 453.313C672.026 452.603 672.23 452.003 672.719 451.515C672.99 451.244 673.301 451.044 673.652 450.914C674.002 450.778 674.354 450.733 674.708 450.777C675.062 450.816 675.422 450.93 675.789 451.121C676.157 451.312 676.499 451.566 676.817 451.883C677.571 452.637 677.967 453.407 678.006 454.191C678.045 454.975 677.803 455.629 677.281 456.151C676.762 456.67 676.137 456.861 675.408 456.723L675.959 457.274ZM673.718 455.049C674.245 455.576 674.698 455.886 675.077 455.977C675.695 456.126 676.205 456 676.606 455.6C676.932 455.274 677.072 454.851 677.028 454.332C676.981 453.81 676.677 453.268 676.117 452.708C675.542 452.133 675.004 451.824 674.501 451.78C674.001 451.733 673.589 451.871 673.266 452.194C672.94 452.52 672.801 452.944 672.848 453.466C672.892 453.985 673.182 454.513 673.718 455.049ZM679.986 453.246L675.586 448.846L676.258 448.175L676.925 448.842C676.784 448.359 676.735 447.996 676.78 447.753C676.827 447.507 676.937 447.297 677.111 447.123C677.362 446.871 677.698 446.696 678.118 446.597L678.553 447.545C678.263 447.62 678.027 447.748 677.844 447.931C677.681 448.094 677.585 448.29 677.554 448.519C677.521 448.746 677.564 448.973 677.683 449.203C677.865 449.551 678.114 449.882 678.429 450.197L680.732 452.501L679.986 453.246Z" fill="#8B8B8B"/>
</g>
</g>
<rect x="570.143" y="502.279" width="121" height="9" rx="4.5" transform="rotate(-45 570.143 502.279)" fill="#CECECE"/>
<circle cx="668.431" cy="410.354" r="4.5" transform="rotate(-45 668.431 410.354)" fill="#CECECE"/>
<circle cx="556.001" cy="522.785" r="4.5" transform="rotate(-45 556.001 522.785)" fill="#CECECE"/>
<path d="M922.046 807.613C908.919 811.413 895.428 812.056 883.392 806.837C871.356 801.617 864.998 816.695 876.948 824.938C888.898 833.181 912.158 834.313 925.346 827.92C938.534 821.527 935.173 803.812 922.046 807.613Z" stroke="#1A1A1A" stroke-width="6"/>
<path d="M887.094 829.307L890.278 809.495C900.903 811.792 911.968 810.529 916.416 809.248L914.773 830.843C904.776 833.24 891.955 830.859 887.094 829.307Z" stroke="#1A1A1A" stroke-width="4"/>
<ellipse cx="1.53792" cy="1.5489" rx="1.53792" ry="1.5489" transform="matrix(0.664179 0.7476 -0.746842 0.664972 894.738 813.109)" fill="#1A1A1A"/>
<ellipse cx="1.53792" cy="1.5489" rx="1.53792" ry="1.5489" transform="matrix(0.664179 0.7476 -0.746842 0.664972 900.517 813.913)" fill="#1A1A1A"/>
<ellipse cx="1.53792" cy="1.5489" rx="1.53792" ry="1.5489" transform="matrix(0.664179 0.7476 -0.746842 0.664972 906.355 813.748)" fill="#1A1A1A"/>
<ellipse cx="1.53792" cy="1.5489" rx="1.53792" ry="1.5489" transform="matrix(0.664179 0.7476 -0.746842 0.664972 911.967 813.328)" fill="#1A1A1A"/>
<ellipse cx="1.53792" cy="1.5489" rx="1.53792" ry="1.5489" transform="matrix(0.664179 0.7476 -0.746842 0.664972 893.439 818.384)" fill="#1A1A1A"/>
<ellipse cx="1.53792" cy="1.5489" rx="1.53792" ry="1.5489" transform="matrix(0.664179 0.7476 -0.746842 0.664972 899.218 819.188)" fill="#1A1A1A"/>
<ellipse cx="1.53792" cy="1.5489" rx="1.53792" ry="1.5489" transform="matrix(0.664179 0.7476 -0.746842 0.664972 905.057 819.023)" fill="#1A1A1A"/>
<ellipse cx="1.53792" cy="1.5489" rx="1.53792" ry="1.5489" transform="matrix(0.664179 0.7476 -0.746842 0.664972 910.668 818.603)" fill="#1A1A1A"/>
<ellipse cx="1.53792" cy="1.5489" rx="1.53792" ry="1.5489" transform="matrix(0.664179 0.7476 -0.746842 0.664972 892.397 823.431)" fill="#1A1A1A"/>
<ellipse cx="1.53792" cy="1.5489" rx="1.53792" ry="1.5489" transform="matrix(0.664179 0.7476 -0.746842 0.664972 898.176 824.234)" fill="#1A1A1A"/>
<ellipse cx="1.53792" cy="1.5489" rx="1.53792" ry="1.5489" transform="matrix(0.664179 0.7476 -0.746842 0.664972 904.015 824.069)" fill="#1A1A1A"/>
<ellipse cx="1.53792" cy="1.5489" rx="1.53792" ry="1.5489" transform="matrix(0.664179 0.7476 -0.746842 0.664972 909.626 823.649)" fill="#1A1A1A"/>
<path d="M978.273 782.868C983.523 771.598 1001.19 753.271 1029.83 770.12C1021.92 782.879 1000.53 803.291 978.273 782.868Z" stroke="#1A1A1A" stroke-width="10"/>
<path d="M977.923 803.108C990.158 800.899 1015.32 804.762 1018.07 837.885C1003.08 838.777 974.073 833.072 977.923 803.108Z" stroke="#1A1A1A" stroke-width="10"/>
<path d="M866.862 830.984C887.181 851.303 920.126 851.303 940.445 830.984C960.765 810.664 960.765 777.72 940.445 757.4C920.126 737.081 887.181 737.081 866.862 757.4C858.47 765.792 853.544 776.338 852.084 787.258C850.476 787.8 848.976 788.704 847.709 789.972C843.107 794.574 843.301 802.228 848.142 807.069C849.895 808.822 852.017 809.966 854.23 810.493C856.694 817.984 860.905 825.026 866.862 830.984Z" stroke="#1A1A1A" stroke-width="13"/>
<path d="M694.927 664.673C686.552 656.087 680.298 646.864 676.163 637.005C672.241 627.146 670.28 617.128 670.28 606.951C670.386 596.88 672.4 587.127 676.322 577.693C680.351 568.152 686.181 559.565 693.814 551.932C701.447 544.3 709.98 538.522 719.415 534.6C728.85 530.677 738.55 528.716 748.515 528.716C758.692 528.716 768.71 530.677 778.569 534.6C788.534 538.628 797.756 544.883 806.237 553.363L819.117 566.243L808.94 576.42L796.537 564.017C789.965 557.657 782.703 552.833 774.752 549.547C767.014 546.261 759.01 544.618 750.741 544.618C742.578 544.512 734.575 546.049 726.73 549.229C718.991 552.515 711.942 557.339 705.581 563.699C699.008 570.272 694.079 577.427 690.793 585.166C687.718 592.905 686.181 600.909 686.181 609.177C686.181 617.446 687.771 625.503 690.952 633.348C694.344 641.192 699.274 648.348 705.74 654.814L718.143 667.218L707.807 677.553L694.927 664.673Z" fill="#1A1A1A"/>
<path d="M717.496 687.242L798.593 606.145L809.724 617.276L728.627 698.373L717.496 687.242ZM818.788 597.081C816.668 594.961 815.608 592.311 815.608 589.13C815.608 585.95 816.668 583.3 818.788 581.18C821.014 578.953 823.665 577.893 826.739 577.999C829.919 577.999 832.569 579.059 834.69 581.18C836.916 583.406 837.976 586.056 837.87 589.13C837.976 592.205 836.916 594.855 834.69 597.081C832.569 599.201 829.919 600.261 826.739 600.261C823.665 600.367 821.014 599.307 818.788 597.081Z" fill="#1A1A1A"/>
<path d="M762.253 731.999C755.044 724.79 751.44 717.052 751.44 708.783C751.546 700.62 755.15 692.988 762.253 685.885L840.647 607.491L851.778 618.622L774.656 695.744C769.992 700.408 767.553 705.179 767.341 710.055C767.235 715.038 769.514 719.861 774.179 724.525L789.762 740.109L780.062 749.809L762.253 731.999ZM810.593 637.545L820.293 627.845L861.478 669.029L851.778 678.729L810.593 637.545Z" fill="#1A1A1A"/>
<path d="M790.298 760.044L848.338 702.004C855.547 694.795 863.179 691.191 871.236 691.191C879.505 691.191 887.243 694.795 894.452 702.004L908.445 715.997L898.746 725.697L886.978 713.93C882.314 709.265 877.491 706.986 872.508 707.092C867.632 707.304 862.861 709.742 858.197 714.407L801.429 771.175L790.298 760.044Z" fill="#1A1A1A"/>
</g>
<g filter="url(#filter3_dii_106_137)">
<path d="M1157.07 143.305L1273.75 259.978L1063.03 470.696C1054.83 478.897 1041.53 478.897 1033.33 470.696L946.355 383.721C938.154 375.52 938.154 362.224 946.355 354.023L1157.07 143.305Z" fill="#F8F8F8"/>
<path d="M1157.78 138.356C1168.32 127.811 1185.42 127.811 1195.96 138.356L1279.4 221.794C1289.95 232.338 1289.95 249.434 1279.4 259.978L1276.57 262.806L1154.95 141.184L1157.78 138.356Z" fill="#F8F8F8"/>
<path opacity="0.4" d="M1257.05 216.239L1269.29 228.482C1270.14 229.328 1270.14 230.7 1269.29 231.546L1264.55 236.289C1263.7 237.136 1262.33 237.136 1261.48 236.289L1249.24 224.047C1248.39 223.201 1248.39 221.829 1249.24 220.983L1253.98 216.239C1254.83 215.393 1256.2 215.393 1257.05 216.239Z" stroke="#151515"/>
<path opacity="0.5" d="M1269.5 233.497L1266.5 236.502C1267.34 236.835 1268.31 236.626 1268.97 235.97C1269.63 235.314 1269.84 234.339 1269.5 233.497" fill="#151515"/>
<path d="M1254.53 217.901C1255.05 217.381 1255.89 217.381 1256.41 217.901L1267.63 229.118C1268.15 229.639 1268.15 230.483 1267.63 231.004L1264 234.628C1263.48 235.148 1262.64 235.148 1262.12 234.628L1250.9 223.411C1250.38 222.89 1250.38 222.046 1250.9 221.525L1254.53 217.901Z" fill="#151515"/>
<path fill-rule="evenodd" clip-rule="evenodd" d="M1240.06 202.056C1241.68 203.676 1242.61 205.863 1242.66 208.165C1242.66 208.34 1242.8 208.48 1242.98 208.479L1244.68 208.461C1244.77 208.461 1244.86 208.424 1244.92 208.361C1244.98 208.297 1245.02 208.211 1245.02 208.122C1244.92 202.056 1240.06 197.196 1234 197.102C1233.91 197.101 1233.82 197.137 1233.76 197.2C1233.69 197.262 1233.66 197.348 1233.66 197.437L1233.64 199.144C1233.64 199.32 1233.78 199.462 1233.95 199.463C1236.26 199.508 1238.44 200.437 1240.06 202.056ZM1237.26 204.854C1238.15 205.745 1238.67 206.947 1238.71 208.227C1238.71 208.404 1238.85 208.543 1239.03 208.539L1240.76 208.5C1240.85 208.498 1240.94 208.46 1241 208.394C1241.07 208.327 1241.11 208.239 1241.11 208.148C1241.03 204.2 1237.92 201.086 1233.97 201.013C1233.88 201.013 1233.79 201.05 1233.73 201.115C1233.66 201.179 1233.62 201.267 1233.62 201.358L1233.58 203.087C1233.58 203.264 1233.72 203.407 1233.89 203.408C1235.17 203.449 1236.37 203.964 1237.26 204.854ZM1236.92 208.6C1236.85 208.665 1236.77 208.702 1236.68 208.702L1233.71 208.731C1233.63 208.732 1233.54 208.698 1233.48 208.637C1233.42 208.576 1233.39 208.492 1233.39 208.405L1233.42 205.443C1233.42 205.352 1233.45 205.266 1233.52 205.203C1233.59 205.14 1233.67 205.107 1233.76 205.111C1235.5 205.247 1236.87 206.618 1237.01 208.356C1237.01 208.446 1236.98 208.534 1236.92 208.6Z" fill="#151515"/>
<path fill-rule="evenodd" clip-rule="evenodd" d="M1231.52 192.154C1231.94 191.739 1231.95 191.077 1231.55 190.675L1230.82 189.947C1230.42 189.545 1229.76 189.555 1229.34 189.97L1222.83 196.482C1222.41 196.896 1222.4 197.559 1222.81 197.961L1223.53 198.689C1223.94 199.091 1224.6 199.08 1225.01 198.665L1231.52 192.154ZM1225.67 188.303L1226.4 189.031C1226.8 189.433 1226.79 190.095 1226.37 190.51L1221.62 195.268C1221.2 195.683 1220.54 195.694 1220.14 195.292L1219.41 194.564C1219.01 194.162 1219.02 193.5 1219.43 193.085L1224.19 188.326C1224.61 187.911 1225.27 187.901 1225.67 188.303ZM1221.25 187.387L1220.52 186.659C1220.12 186.257 1219.46 186.268 1219.04 186.683L1216.04 189.688C1215.62 190.103 1215.61 190.765 1216.01 191.167L1216.74 191.895C1217.14 192.297 1217.8 192.286 1218.22 191.871L1221.22 188.866C1221.64 188.451 1221.65 187.789 1221.25 187.387ZM1216.33 186.972C1216.74 186.557 1216.75 185.895 1216.35 185.493L1215.62 184.765C1215.22 184.363 1214.56 184.373 1214.14 184.788L1212.64 186.291C1212.22 186.706 1212.21 187.368 1212.62 187.77L1213.34 188.498C1213.75 188.9 1214.41 188.89 1214.82 188.475L1216.33 186.972Z" fill="#151515"/>
<path d="M1190.01 147.055C1190.3 147.345 1190.52 147.656 1190.67 147.99C1190.83 148.326 1190.89 148.659 1190.86 148.988C1190.82 149.315 1190.67 149.614 1190.4 149.886C1190.2 150.088 1189.98 150.225 1189.75 150.297C1189.52 150.37 1189.28 150.397 1189.03 150.376C1188.78 150.353 1188.52 150.298 1188.27 150.21C1188.35 150.484 1188.41 150.765 1188.45 151.053C1188.48 151.338 1188.47 151.615 1188.4 151.885C1188.34 152.156 1188.19 152.404 1187.97 152.627C1187.69 152.908 1187.37 153.077 1187.01 153.135C1186.66 153.19 1186.29 153.142 1185.91 152.99C1185.54 152.838 1185.17 152.587 1184.82 152.237C1184.45 151.859 1184.18 151.484 1184.02 151.111C1183.87 150.739 1183.82 150.383 1183.88 150.045C1183.95 149.704 1184.12 149.393 1184.4 149.112C1184.63 148.882 1184.87 148.724 1185.13 148.639C1185.39 148.556 1185.65 148.528 1185.92 148.553C1186.19 148.576 1186.46 148.632 1186.72 148.722C1186.67 148.478 1186.64 148.234 1186.63 147.99C1186.63 147.749 1186.67 147.514 1186.75 147.286C1186.83 147.06 1186.97 146.847 1187.18 146.647C1187.44 146.38 1187.74 146.232 1188.07 146.202C1188.4 146.174 1188.73 146.239 1189.07 146.395C1189.41 146.549 1189.72 146.769 1190.01 147.055ZM1185.45 150.038C1185.27 150.219 1185.18 150.435 1185.19 150.683C1185.2 150.932 1185.34 151.184 1185.59 151.439C1185.86 151.704 1186.11 151.846 1186.36 151.864C1186.6 151.88 1186.82 151.795 1187.01 151.609C1187.13 151.48 1187.21 151.329 1187.23 151.156C1187.25 150.986 1187.25 150.806 1187.21 150.618C1187.18 150.427 1187.13 150.24 1187.09 150.058L1187.04 149.917C1186.83 149.836 1186.62 149.782 1186.43 149.755C1186.24 149.729 1186.06 149.737 1185.89 149.779C1185.73 149.82 1185.58 149.906 1185.45 150.038ZM1189.22 147.828C1189.04 147.653 1188.85 147.553 1188.65 147.528C1188.44 147.502 1188.26 147.571 1188.1 147.735C1187.98 147.85 1187.91 147.979 1187.88 148.121C1187.85 148.264 1187.85 148.414 1187.88 148.57C1187.91 148.729 1187.95 148.891 1188 149.057C1188.16 149.112 1188.32 149.155 1188.47 149.185C1188.62 149.215 1188.77 149.215 1188.92 149.185C1189.06 149.155 1189.2 149.079 1189.32 148.957C1189.48 148.794 1189.55 148.608 1189.52 148.401C1189.5 148.196 1189.4 148.005 1189.22 147.828ZM1187.98 154.266C1188.19 154.05 1188.41 153.956 1188.61 153.986C1188.82 154.019 1189.01 154.119 1189.17 154.287C1189.34 154.45 1189.43 154.634 1189.46 154.839C1189.5 155.046 1189.4 155.258 1189.19 155.474C1188.98 155.682 1188.77 155.771 1188.56 155.744C1188.35 155.718 1188.16 155.624 1188 155.461C1187.83 155.293 1187.73 155.103 1187.71 154.891C1187.68 154.682 1187.77 154.473 1187.98 154.266ZM1190.83 151.414C1191.05 151.198 1191.26 151.105 1191.46 151.134C1191.67 151.167 1191.86 151.267 1192.03 151.435C1192.19 151.598 1192.29 151.782 1192.32 151.987C1192.35 152.194 1192.26 152.406 1192.04 152.623C1191.83 152.832 1191.62 152.923 1191.41 152.895C1191.2 152.868 1191.01 152.772 1190.85 152.609C1190.68 152.441 1190.58 152.252 1190.55 152.043C1190.53 151.833 1190.62 151.624 1190.83 151.414ZM1192.18 159.458L1191.12 158.391L1194.04 155.47C1194.12 155.389 1194.22 155.292 1194.34 155.176C1194.46 155.059 1194.58 154.941 1194.71 154.821C1194.84 154.699 1194.96 154.59 1195.07 154.493C1195.01 154.497 1194.91 154.497 1194.76 154.493C1194.61 154.488 1194.48 154.481 1194.35 154.472L1193.3 154.358L1193.43 153.202L1196.35 153.533L1197.23 154.41L1192.18 159.458ZM1198.82 159.643C1199.13 159.952 1199.34 160.284 1199.46 160.641C1199.59 161 1199.6 161.363 1199.52 161.729C1199.43 162.095 1199.21 162.444 1198.88 162.778C1198.52 163.142 1198.13 163.38 1197.71 163.493C1197.3 163.606 1196.87 163.583 1196.43 163.424C1195.99 163.267 1195.55 162.967 1195.11 162.523C1194.84 162.258 1194.62 161.985 1194.43 161.704C1194.24 161.428 1194.1 161.157 1194.02 160.89L1194.94 159.968C1195.03 160.235 1195.16 160.522 1195.34 160.831C1195.52 161.139 1195.72 161.402 1195.94 161.618C1196.15 161.83 1196.36 161.981 1196.56 162.07C1196.76 162.158 1196.96 162.18 1197.15 162.136C1197.34 162.092 1197.53 161.978 1197.72 161.794C1197.96 161.548 1198.07 161.276 1198.03 160.979C1198 160.682 1197.81 160.362 1197.47 160.019C1197.34 159.888 1197.19 159.764 1197.02 159.647C1196.85 159.532 1196.71 159.439 1196.59 159.37L1196.39 158.718L1199.16 156.335L1201.89 159.073L1200.99 159.978L1199.19 158.176L1198.1 159.073C1198.2 159.136 1198.3 159.205 1198.41 159.281C1198.52 159.357 1198.65 159.477 1198.82 159.643Z" fill="#151515"/>
<path d="M1263.85 206.238L1210.81 153.205V153.205C1200.66 163.358 1200.66 179.821 1210.81 189.974L1227.08 206.238C1237.23 216.391 1253.69 216.391 1263.85 206.238V206.238Z" fill="#222222"/>
<rect x="1210.11" y="166.64" width="54" height="4" rx="2" transform="rotate(45 1210.11 166.64)" fill="#393939"/>
<circle cx="1251.12" cy="210.48" r="2" transform="rotate(45 1251.12 210.48)" fill="#393939"/>
<rect x="1176.17" y="113.607" width="180" height="360" rx="49.5" transform="rotate(45 1176.17 113.607)" stroke="#222222" stroke-width="15"/>
</g>
<path d="M1164.76 262.48C1166.64 268.997 1166.95 275.697 1164.35 281.679C1161.75 287.661 1169.24 290.808 1173.34 284.867C1177.44 278.926 1178.02 267.372 1174.85 260.826C1171.69 254.281 1162.89 255.963 1164.76 262.48Z" stroke="#25DD1F" stroke-width="2"/>
<path d="M1175.51 279.825L1165.68 278.257C1166.83 272.979 1166.21 267.484 1165.57 265.275L1176.3 266.076C1177.48 271.04 1176.29 277.409 1175.51 279.825Z" stroke="#25DD1F"/>
<ellipse cx="0.579644" cy="0.582152" rx="0.579644" ry="0.582152" transform="matrix(0.747466 -0.664325 0.664828 0.746974 1168.34 274.724)" fill="#25DD1F"/>
<ellipse cx="0.579644" cy="0.582152" rx="0.579644" ry="0.582152" transform="matrix(0.747466 -0.664325 0.664828 0.746974 1168.64 272.549)" fill="#25DD1F"/>
<ellipse cx="0.579644" cy="0.582152" rx="0.579644" ry="0.582152" transform="matrix(0.747466 -0.664325 0.664828 0.746974 1168.58 270.351)" fill="#25DD1F"/>
<ellipse cx="0.579644" cy="0.582152" rx="0.579644" ry="0.582152" transform="matrix(0.747466 -0.664325 0.664828 0.746974 1168.43 268.239)" fill="#25DD1F"/>
<ellipse cx="0.579644" cy="0.582152" rx="0.579644" ry="0.582152" transform="matrix(0.747466 -0.664325 0.664828 0.746974 1170.32 275.21)" fill="#25DD1F"/>
<ellipse cx="0.579644" cy="0.582152" rx="0.579644" ry="0.582152" transform="matrix(0.747466 -0.664325 0.664828 0.746974 1170.63 273.035)" fill="#25DD1F"/>
<ellipse cx="0.579644" cy="0.582152" rx="0.579644" ry="0.582152" transform="matrix(0.747466 -0.664325 0.664828 0.746974 1170.57 270.837)" fill="#25DD1F"/>
<ellipse cx="0.579644" cy="0.582152" rx="0.579644" ry="0.582152" transform="matrix(0.747466 -0.664325 0.664828 0.746974 1170.41 268.725)" fill="#25DD1F"/>
<ellipse cx="0.579644" cy="0.582152" rx="0.579644" ry="0.582152" transform="matrix(0.747466 -0.664325 0.664828 0.746974 1172.22 275.599)" fill="#25DD1F"/>
<ellipse cx="0.579644" cy="0.582152" rx="0.579644" ry="0.582152" transform="matrix(0.747466 -0.664325 0.664828 0.746974 1172.53 273.424)" fill="#25DD1F"/>
<ellipse cx="0.579644" cy="0.582152" rx="0.579644" ry="0.582152" transform="matrix(0.747466 -0.664325 0.664828 0.746974 1172.47 271.227)" fill="#25DD1F"/>
<ellipse cx="0.579644" cy="0.582152" rx="0.579644" ry="0.582152" transform="matrix(0.747466 -0.664325 0.664828 0.746974 1172.31 269.115)" fill="#25DD1F"/>
<path d="M1152.51 234.571C1146.92 231.971 1137.83 223.212 1146.22 208.97C1152.55 212.891 1162.67 223.5 1152.51 234.571Z" stroke="#25DD1F" stroke-width="4"/>
<path d="M1162.57 234.73C1161.48 228.655 1163.42 216.157 1179.87 214.765C1180.3 222.208 1177.45 236.621 1162.57 234.73Z" stroke="#25DD1F" stroke-width="4"/>
<path d="M1176.33 289.872C1186.44 279.765 1186.46 263.402 1176.39 253.325C1166.31 243.247 1149.95 243.271 1139.84 253.377C1129.73 263.484 1129.71 279.847 1139.79 289.925C1143.95 294.087 1149.18 296.526 1154.6 297.243C1154.87 298.042 1155.32 298.786 1155.95 299.414C1158.23 301.697 1162.03 301.595 1164.44 299.187C1165.31 298.315 1165.88 297.26 1166.15 296.161C1169.87 294.931 1173.37 292.835 1176.33 289.872Z" stroke="#25DD1F" stroke-width="7"/>
<path d="M1093.69 376.231C1089.42 380.396 1084.83 383.509 1079.93 385.57C1075.03 387.525 1070.05 388.506 1065 388.514C1060 388.468 1055.15 387.475 1050.47 385.533C1045.74 383.539 1041.47 380.649 1037.69 376.864C1033.9 373.078 1031.04 368.844 1029.1 364.161C1027.16 359.477 1026.19 354.661 1026.2 349.712C1026.2 344.657 1027.19 339.68 1029.14 334.78C1031.15 329.828 1034.26 325.243 1038.48 321.025L1044.89 314.618L1049.93 319.665L1043.76 325.835C1040.6 329.104 1038.2 332.714 1036.56 336.665C1034.92 340.511 1034.1 344.488 1034.1 348.595C1034.04 352.649 1034.8 356.623 1036.37 360.517C1038 364.358 1040.39 367.856 1043.54 371.011C1046.8 374.271 1050.35 376.714 1054.19 378.341C1058.03 379.862 1062.01 380.62 1066.12 380.614C1070.22 380.608 1074.23 379.813 1078.12 378.227C1082.02 376.537 1085.58 374.083 1088.8 370.867L1094.97 364.698L1100.09 369.824L1093.69 376.231Z" fill="#25DD1F"/>
<path d="M1104.91 365.005L1064.69 324.783L1070.23 319.247L1110.45 359.468L1104.91 365.005ZM1060.2 314.76C1059.15 315.814 1057.83 316.343 1056.25 316.345C1054.67 316.347 1053.36 315.822 1052.3 314.771C1051.2 313.667 1050.68 312.351 1050.73 310.824C1050.73 309.245 1051.26 307.928 1052.32 306.873C1053.42 305.766 1054.74 305.237 1056.27 305.288C1057.79 305.233 1059.11 305.758 1060.21 306.862C1061.27 307.913 1061.79 309.229 1061.79 310.808C1061.84 312.335 1061.31 313.652 1060.2 314.76Z" fill="#25DD1F"/>
<path d="M1127.17 342.743C1123.59 346.329 1119.74 348.124 1115.63 348.13C1111.58 348.083 1107.79 346.299 1104.27 342.776L1065.39 303.895L1070.93 298.359L1109.18 336.609C1111.49 338.922 1113.86 340.13 1116.28 340.231C1118.75 340.281 1121.15 339.145 1123.47 336.825L1131.22 329.074L1136.03 333.885L1127.17 342.743ZM1080.29 318.801L1075.48 313.99L1095.97 293.505L1100.78 298.316L1080.29 318.801Z" fill="#25DD1F"/>
<path d="M1141.12 328.794L1112.34 300.008C1108.76 296.433 1106.98 292.644 1106.98 288.642C1106.99 284.536 1108.78 280.689 1112.37 277.104L1119.33 270.144L1124.14 274.954L1118.29 280.807C1115.97 283.127 1114.83 285.525 1114.88 287.999C1114.98 290.421 1116.19 292.789 1118.5 295.102L1146.66 323.257L1141.12 328.794Z" fill="#25DD1F"/>
<g filter="url(#filter4_di_106_137)">
<g clip-path="url(#clip1_106_137)">
<path d="M1235.07 814.305L1351.75 930.978L1141.03 1141.7C1132.83 1149.9 1119.53 1149.9 1111.33 1141.7L1024.36 1054.72C1016.15 1046.52 1016.15 1033.22 1024.36 1025.02L1235.07 814.305Z" fill="#25DD1F"/>
<path d="M1237.67 938.563C1239.54 945.08 1239.85 951.78 1237.25 957.762C1234.65 963.744 1242.14 966.891 1246.24 960.95C1250.34 955.009 1250.92 943.455 1247.75 936.909C1244.59 930.364 1235.79 932.046 1237.67 938.563Z" stroke="#1A1A1A" stroke-width="2"/>
<path d="M1248.42 955.908L1238.58 954.34C1239.73 949.062 1239.11 943.567 1238.47 941.358L1249.2 942.159C1250.38 947.123 1249.19 953.492 1248.42 955.908Z" stroke="#1A1A1A"/>
<ellipse cx="0.579644" cy="0.582152" rx="0.579644" ry="0.582152" transform="matrix(0.747466 -0.664325 0.664828 0.746974 1241.24 950.807)" fill="#1A1A1A"/>
<ellipse cx="0.579644" cy="0.582152" rx="0.579644" ry="0.582152" transform="matrix(0.747466 -0.664325 0.664828 0.746974 1241.54 948.632)" fill="#1A1A1A"/>
<ellipse cx="0.579644" cy="0.582152" rx="0.579644" ry="0.582152" transform="matrix(0.747466 -0.664325 0.664828 0.746974 1241.48 946.434)" fill="#1A1A1A"/>
<ellipse cx="0.579644" cy="0.582152" rx="0.579644" ry="0.582152" transform="matrix(0.747466 -0.664325 0.664828 0.746974 1241.33 944.322)" fill="#1A1A1A"/>
<ellipse cx="0.579644" cy="0.582152" rx="0.579644" ry="0.582152" transform="matrix(0.747466 -0.664325 0.664828 0.746974 1243.22 951.293)" fill="#1A1A1A"/>
<ellipse cx="0.579644" cy="0.582152" rx="0.579644" ry="0.582152" transform="matrix(0.747466 -0.664325 0.664828 0.746974 1243.53 949.118)" fill="#1A1A1A"/>
<ellipse cx="0.579644" cy="0.582152" rx="0.579644" ry="0.582152" transform="matrix(0.747466 -0.664325 0.664828 0.746974 1243.47 946.92)" fill="#1A1A1A"/>
<ellipse cx="0.579644" cy="0.582152" rx="0.579644" ry="0.582152" transform="matrix(0.747466 -0.664325 0.664828 0.746974 1243.31 944.808)" fill="#1A1A1A"/>
<ellipse cx="0.579644" cy="0.582152" rx="0.579644" ry="0.582152" transform="matrix(0.747466 -0.664325 0.664828 0.746974 1245.12 951.682)" fill="#1A1A1A"/>
<ellipse cx="0.579644" cy="0.582152" rx="0.579644" ry="0.582152" transform="matrix(0.747466 -0.664325 0.664828 0.746974 1245.43 949.507)" fill="#1A1A1A"/>
<ellipse cx="0.579644" cy="0.582152" rx="0.579644" ry="0.582152" transform="matrix(0.747466 -0.664325 0.664828 0.746974 1245.37 947.31)" fill="#1A1A1A"/>
<ellipse cx="0.579644" cy="0.582152" rx="0.579644" ry="0.582152" transform="matrix(0.747466 -0.664325 0.664828 0.746974 1245.21 945.198)" fill="#1A1A1A"/>
<path d="M1225.42 910.654C1219.82 908.054 1210.73 899.295 1219.12 885.053C1225.45 888.974 1235.58 899.583 1225.42 910.654Z" stroke="#1A1A1A" stroke-width="4"/>
<path d="M1235.47 910.813C1234.38 904.738 1236.32 892.24 1252.77 890.848C1253.2 898.291 1250.35 912.704 1235.47 910.813Z" stroke="#1A1A1A" stroke-width="4"/>
<path d="M1249.23 965.955C1259.34 955.848 1259.36 939.485 1249.29 929.408C1239.21 919.33 1222.85 919.354 1212.74 929.46C1202.63 939.567 1202.61 955.93 1212.69 966.008C1216.85 970.17 1222.08 972.609 1227.51 973.326C1227.77 974.125 1228.22 974.869 1228.85 975.497C1231.13 977.78 1234.93 977.678 1237.34 975.27C1238.21 974.398 1238.78 973.343 1239.05 972.244C1242.77 971.014 1246.27 968.918 1249.23 965.955Z" stroke="#1A1A1A" stroke-width="7"/>
<path d="M1166.59 1052.31C1162.32 1056.48 1157.73 1059.59 1152.83 1061.65C1147.93 1063.61 1142.95 1064.59 1137.9 1064.6C1132.9 1064.55 1128.06 1063.56 1123.37 1061.62C1118.64 1059.62 1114.38 1056.73 1110.59 1052.95C1106.8 1049.16 1103.94 1044.93 1102 1040.24C1100.06 1035.56 1099.09 1030.74 1099.1 1025.79C1099.1 1020.74 1100.09 1015.76 1102.04 1010.86C1104.05 1005.91 1107.16 1001.33 1111.38 997.108L1117.79 990.701L1122.83 995.749L1116.67 1001.92C1113.5 1005.19 1111.1 1008.8 1109.46 1012.75C1107.82 1016.59 1107 1020.57 1107 1024.68C1106.94 1028.73 1107.7 1032.71 1109.27 1036.6C1110.9 1040.44 1113.29 1043.94 1116.44 1047.09C1119.7 1050.35 1123.25 1052.8 1127.09 1054.42C1130.94 1055.95 1134.91 1056.7 1139.02 1056.7C1143.12 1056.69 1147.13 1055.9 1151.02 1054.31C1154.92 1052.62 1158.48 1050.17 1161.7 1046.95L1167.87 1040.78L1172.99 1045.91L1166.59 1052.31Z" fill="#1A1A1A"/>
<path d="M1177.81 1041.09L1137.59 1000.87L1143.13 995.33L1183.35 1035.55L1177.81 1041.09ZM1133.1 990.843C1132.05 991.897 1130.73 992.426 1129.15 992.428C1127.57 992.43 1126.26 991.905 1125.21 990.854C1124.1 989.75 1123.58 988.434 1123.63 986.907C1123.63 985.328 1124.16 984.011 1125.22 982.956C1126.32 981.849 1127.64 981.32 1129.17 981.371C1130.7 981.316 1132.01 981.841 1133.11 982.945C1134.17 983.996 1134.69 985.312 1134.69 986.891C1134.74 988.418 1134.21 989.735 1133.1 990.843Z" fill="#1A1A1A"/>
<path d="M1200.07 1018.83C1196.49 1022.41 1192.64 1024.21 1188.54 1024.21C1184.48 1024.17 1180.69 1022.38 1177.17 1018.86L1138.29 979.978L1143.83 974.442L1182.08 1012.69C1184.39 1015 1186.76 1016.21 1189.18 1016.31C1191.65 1016.36 1194.05 1015.23 1196.37 1012.91L1204.12 1005.16L1208.93 1009.97L1200.07 1018.83ZM1153.19 994.884L1148.38 990.073L1168.87 969.588L1173.68 974.399L1153.19 994.884Z" fill="#1A1A1A"/>
<path d="M1214.02 1004.88L1185.24 976.091C1181.66 972.516 1179.88 968.727 1179.88 964.725C1179.89 960.619 1181.68 956.772 1185.27 953.187L1192.23 946.227L1197.04 951.037L1191.19 956.89C1188.87 959.21 1187.73 961.608 1187.78 964.082C1187.88 966.504 1189.09 968.872 1191.4 971.185L1219.56 999.34L1214.02 1004.88Z" fill="#1A1A1A"/>
</g>
<path d="M1235.78 809.356C1246.32 798.811 1263.42 798.811 1273.96 809.356L1357.4 892.794C1367.95 903.338 1367.95 920.434 1357.4 930.978L1354.57 933.806L1232.95 812.184L1235.78 809.356Z" fill="#F0F0F0"/>
<path opacity="0.4" d="M1335.05 889.24L1347.29 901.482C1348.14 902.328 1348.14 903.7 1347.29 904.546L1342.55 909.29C1341.7 910.136 1340.33 910.136 1339.48 909.29L1327.24 897.047C1326.39 896.201 1326.39 894.829 1327.24 893.983L1331.98 889.24C1332.83 888.394 1334.2 888.394 1335.05 889.24Z" stroke="#727272"/>
<path opacity="0.5" d="M1347.5 906.497L1344.5 909.502C1345.34 909.836 1346.31 909.626 1346.97 908.97C1347.63 908.314 1347.84 907.34 1347.5 906.497" fill="#727272"/>
<path d="M1332.53 890.901C1333.05 890.381 1333.89 890.381 1334.41 890.901L1345.63 902.118C1346.15 902.639 1346.15 903.483 1345.63 904.004L1342 907.628C1341.48 908.148 1340.64 908.148 1340.12 907.628L1328.9 896.411C1328.38 895.89 1328.38 895.046 1328.9 894.525L1332.53 890.901Z" fill="#727272"/>
<path fill-rule="evenodd" clip-rule="evenodd" d="M1318.06 873.056C1319.68 874.676 1320.61 876.863 1320.66 879.165C1320.66 879.34 1320.8 879.48 1320.98 879.479L1322.68 879.461C1322.77 879.461 1322.86 879.424 1322.92 879.361C1322.98 879.297 1323.02 879.211 1323.02 879.122C1322.92 873.056 1318.06 868.196 1312 868.102C1311.91 868.101 1311.82 868.137 1311.76 868.2C1311.69 868.262 1311.66 868.348 1311.66 868.437L1311.64 870.144C1311.64 870.32 1311.78 870.462 1311.95 870.463C1314.26 870.508 1316.44 871.437 1318.06 873.056ZM1315.26 875.854C1316.15 876.745 1316.67 877.947 1316.71 879.227C1316.71 879.404 1316.85 879.543 1317.03 879.539L1318.76 879.5C1318.85 879.498 1318.94 879.46 1319 879.394C1319.07 879.327 1319.11 879.239 1319.11 879.148C1319.03 875.2 1315.92 872.086 1311.97 872.013C1311.88 872.013 1311.79 872.05 1311.73 872.115C1311.66 872.179 1311.62 872.267 1311.62 872.358L1311.58 874.087C1311.58 874.264 1311.72 874.407 1311.89 874.408C1313.17 874.449 1314.37 874.964 1315.26 875.854ZM1314.92 879.6C1314.85 879.665 1314.77 879.702 1314.68 879.702L1311.71 879.731C1311.63 879.732 1311.54 879.698 1311.48 879.637C1311.42 879.576 1311.39 879.492 1311.39 879.405L1311.42 876.443C1311.42 876.352 1311.45 876.266 1311.52 876.203C1311.59 876.14 1311.67 876.107 1311.76 876.111C1313.5 876.247 1314.87 877.618 1315.01 879.356C1315.01 879.446 1314.98 879.534 1314.92 879.6Z" fill="#727272"/>
<path fill-rule="evenodd" clip-rule="evenodd" d="M1309.52 863.154C1309.94 862.739 1309.95 862.077 1309.55 861.675L1308.82 860.947C1308.42 860.545 1307.76 860.555 1307.34 860.97L1300.83 867.482C1300.41 867.896 1300.4 868.559 1300.81 868.961L1301.53 869.689C1301.94 870.091 1302.6 870.08 1303.01 869.665L1309.52 863.154ZM1303.67 859.303L1304.4 860.031C1304.8 860.433 1304.79 861.095 1304.37 861.51L1299.62 866.268C1299.2 866.683 1298.54 866.694 1298.14 866.292L1297.41 865.564C1297.01 865.162 1297.02 864.5 1297.43 864.085L1302.19 859.326C1302.61 858.911 1303.27 858.901 1303.67 859.303ZM1299.25 858.387L1298.52 857.659C1298.12 857.257 1297.46 857.268 1297.04 857.683L1294.04 860.688C1293.62 861.103 1293.61 861.765 1294.01 862.167L1294.74 862.895C1295.14 863.297 1295.8 863.286 1296.22 862.871L1299.22 859.866C1299.64 859.451 1299.65 858.789 1299.25 858.387ZM1294.33 857.972C1294.74 857.557 1294.75 856.895 1294.35 856.493L1293.62 855.765C1293.22 855.363 1292.56 855.373 1292.14 855.788L1290.64 857.291C1290.22 857.706 1290.21 858.368 1290.62 858.77L1291.34 859.498C1291.75 859.9 1292.41 859.89 1292.82 859.475L1294.33 857.972Z" fill="#727272"/>
<path d="M1264.01 821.055C1264.3 821.345 1264.52 821.656 1264.67 821.99C1264.83 822.326 1264.89 822.659 1264.86 822.988C1264.82 823.315 1264.67 823.614 1264.4 823.886C1264.2 824.088 1263.98 824.225 1263.75 824.297C1263.52 824.37 1263.28 824.397 1263.03 824.376C1262.78 824.353 1262.52 824.298 1262.27 824.21C1262.35 824.484 1262.41 824.765 1262.45 825.053C1262.48 825.338 1262.47 825.615 1262.4 825.885C1262.34 826.156 1262.19 826.404 1261.97 826.627C1261.69 826.908 1261.37 827.077 1261.01 827.135C1260.66 827.19 1260.29 827.142 1259.91 826.99C1259.54 826.838 1259.17 826.587 1258.82 826.237C1258.45 825.859 1258.18 825.484 1258.02 825.111C1257.87 824.739 1257.82 824.383 1257.88 824.045C1257.95 823.704 1258.12 823.393 1258.4 823.112C1258.63 822.882 1258.87 822.724 1259.13 822.639C1259.39 822.556 1259.65 822.528 1259.92 822.553C1260.19 822.576 1260.46 822.632 1260.72 822.722C1260.67 822.478 1260.64 822.234 1260.63 821.99C1260.63 821.749 1260.67 821.514 1260.75 821.286C1260.83 821.06 1260.97 820.847 1261.18 820.647C1261.44 820.38 1261.74 820.232 1262.07 820.202C1262.4 820.174 1262.73 820.239 1263.07 820.395C1263.41 820.549 1263.72 820.769 1264.01 821.055ZM1259.45 824.038C1259.27 824.219 1259.18 824.435 1259.19 824.683C1259.2 824.932 1259.34 825.184 1259.59 825.439C1259.86 825.704 1260.11 825.846 1260.36 825.864C1260.6 825.88 1260.82 825.795 1261.01 825.609C1261.13 825.48 1261.21 825.329 1261.23 825.156C1261.25 824.986 1261.25 824.806 1261.21 824.618C1261.18 824.427 1261.13 824.24 1261.09 824.058L1261.04 823.917C1260.83 823.836 1260.62 823.782 1260.43 823.755C1260.24 823.729 1260.06 823.737 1259.89 823.779C1259.73 823.82 1259.58 823.906 1259.45 824.038ZM1263.22 821.828C1263.04 821.653 1262.85 821.553 1262.65 821.528C1262.44 821.502 1262.26 821.571 1262.1 821.735C1261.98 821.85 1261.91 821.979 1261.88 822.121C1261.85 822.264 1261.85 822.414 1261.88 822.57C1261.91 822.729 1261.95 822.891 1262 823.057C1262.16 823.112 1262.32 823.155 1262.47 823.185C1262.62 823.215 1262.77 823.215 1262.92 823.185C1263.06 823.155 1263.2 823.079 1263.32 822.957C1263.48 822.794 1263.55 822.608 1263.52 822.401C1263.5 822.196 1263.4 822.005 1263.22 821.828ZM1261.98 828.266C1262.19 828.05 1262.41 827.956 1262.61 827.986C1262.82 828.019 1263.01 828.119 1263.17 828.287C1263.34 828.45 1263.43 828.634 1263.46 828.839C1263.5 829.046 1263.4 829.258 1263.19 829.474C1262.98 829.682 1262.77 829.771 1262.56 829.744C1262.35 829.718 1262.16 829.624 1262 829.461C1261.83 829.293 1261.73 829.103 1261.71 828.891C1261.68 828.682 1261.77 828.473 1261.98 828.266ZM1264.83 825.414C1265.05 825.198 1265.26 825.105 1265.46 825.134C1265.67 825.167 1265.86 825.267 1266.03 825.435C1266.19 825.598 1266.29 825.782 1266.32 825.987C1266.35 826.194 1266.26 826.406 1266.04 826.623C1265.83 826.832 1265.62 826.923 1265.41 826.895C1265.2 826.868 1265.01 826.772 1264.85 826.609C1264.68 826.441 1264.58 826.252 1264.55 826.043C1264.53 825.833 1264.62 825.624 1264.83 825.414ZM1266.18 833.458L1265.12 832.391L1268.04 829.47C1268.12 829.389 1268.22 829.292 1268.34 829.176C1268.46 829.059 1268.58 828.941 1268.71 828.821C1268.84 828.699 1268.96 828.59 1269.07 828.493C1269.01 828.497 1268.91 828.497 1268.76 828.493C1268.61 828.488 1268.48 828.481 1268.35 828.472L1267.3 828.358L1267.43 827.202L1270.35 827.533L1271.23 828.41L1266.18 833.458ZM1272.82 833.643C1273.13 833.952 1273.34 834.284 1273.46 834.641C1273.59 835 1273.6 835.363 1273.52 835.729C1273.43 836.095 1273.21 836.444 1272.88 836.778C1272.52 837.142 1272.13 837.38 1271.71 837.493C1271.3 837.606 1270.87 837.583 1270.43 837.424C1269.99 837.267 1269.55 836.967 1269.11 836.523C1268.84 836.258 1268.62 835.985 1268.43 835.704C1268.24 835.428 1268.1 835.157 1268.02 834.89L1268.94 833.968C1269.03 834.235 1269.16 834.522 1269.34 834.831C1269.52 835.139 1269.72 835.402 1269.94 835.618C1270.15 835.83 1270.36 835.981 1270.56 836.07C1270.76 836.158 1270.96 836.18 1271.15 836.136C1271.34 836.092 1271.53 835.978 1271.72 835.794C1271.96 835.548 1272.07 835.276 1272.03 834.979C1272 834.682 1271.81 834.362 1271.47 834.019C1271.34 833.888 1271.19 833.764 1271.02 833.647C1270.85 833.532 1270.71 833.439 1270.59 833.37L1270.39 832.718L1273.16 830.335L1275.89 833.073L1274.99 833.978L1273.19 832.176L1272.1 833.073C1272.2 833.136 1272.3 833.205 1272.41 833.281C1272.52 833.357 1272.65 833.477 1272.82 833.643Z" fill="#727272"/>
<path d="M1341.85 877.238L1288.81 824.205V824.205C1278.66 834.358 1278.66 850.821 1288.81 860.974L1305.08 877.238C1315.23 887.391 1331.69 887.391 1341.85 877.238V877.238Z" fill="white"/>
<rect x="1288.11" y="837.64" width="54" height="4" rx="2" transform="rotate(45 1288.11 837.64)" fill="#CFCFCF"/>
<circle cx="1329.12" cy="881.48" r="2" transform="rotate(45 1329.12 881.48)" fill="#CFCFCF"/>
<rect x="1254.17" y="784.607" width="180" height="360" rx="49.5" transform="rotate(45 1254.17 784.607)" stroke="white" stroke-width="15"/>
</g>
<rect x="1884.91" y="404.5" width="467" height="649" rx="38" transform="rotate(45 1884.91 404.5)" fill="#C4C4C4"/>
<mask id="mask2_106_137" style="mask-type:alpha" maskUnits="userSpaceOnUse" x="1466" y="446" width="708" height="707">
<rect x="1881.38" y="444.805" width="415" height="588" rx="3" transform="rotate(45 1881.38 444.805)" fill="#1A1A1A"/>
</mask>
<g mask="url(#mask2_106_137)">
<rect x="1881.38" y="444.805" width="415" height="588" rx="3" transform="rotate(45 1881.38 444.805)" fill="#25DD1F"/>
<g filter="url(#filter5_d_106_137)">
<rect x="1881.38" y="444.805" width="415" height="40" transform="rotate(45 1881.38 444.805)" fill="#ECECEC"/>
<rect x="1891.28" y="468.847" width="19" height="19" transform="rotate(45 1891.28 468.847)" fill="#ECECEC"/>
<circle cx="1913.9" cy="504.909" r="9.5" transform="rotate(45 1913.9 504.909)" fill="#ECECEC"/>
<rect x="1807.13" y="383.287" width="608" height="22" rx="10" transform="rotate(45 1807.13 383.287)" fill="#ECECEC"/>
</g>
<path d="M1924.61 719.875C1928.41 733.002 1929.06 746.493 1923.84 758.529C1918.62 770.565 1933.7 776.924 1941.94 764.974C1950.18 753.023 1951.31 729.763 1944.92 716.575C1938.53 703.387 1920.81 706.749 1924.61 719.875Z" stroke="#1A1A1A" stroke-width="6"/>
<path d="M1946.31 754.828L1926.5 751.643C1928.79 741.019 1927.53 729.953 1926.25 725.505L1947.84 727.148C1950.24 737.145 1947.86 749.967 1946.31 754.828Z" stroke="#1A1A1A" stroke-width="4"/>
<path d="M1899.87 663.648C1888.6 658.398 1870.27 640.736 1887.12 612.086C1899.88 619.998 1920.29 641.388 1899.87 663.648Z" stroke="#1A1A1A" stroke-width="10"/>
<path d="M1920.11 663.998C1917.9 651.763 1921.76 626.606 1954.88 623.852C1955.78 638.838 1950.07 667.849 1920.11 663.998Z" stroke="#1A1A1A" stroke-width="10"/>
<path d="M1947.98 775.059C1968.3 754.74 1968.3 721.795 1947.98 701.476C1927.66 681.157 1894.72 681.157 1874.4 701.476C1854.08 721.795 1854.08 754.74 1874.4 775.059C1882.79 783.451 1893.34 788.377 1904.26 789.837C1904.8 791.446 1905.7 792.945 1906.97 794.212C1911.57 798.814 1919.23 798.62 1924.07 793.78C1925.82 792.026 1926.97 789.904 1927.49 787.691C1934.98 785.227 1942.03 781.016 1947.98 775.059Z" stroke="#1A1A1A" stroke-width="13"/>
<path d="M1781.67 946.994C1773.09 955.369 1763.86 961.624 1754 965.758C1744.15 969.68 1734.13 971.642 1723.95 971.642C1713.88 971.536 1704.13 969.521 1694.69 965.599C1685.15 961.571 1676.56 955.74 1668.93 948.107C1661.3 940.475 1655.52 931.941 1651.6 922.506C1647.68 913.071 1645.72 903.371 1645.72 893.407C1645.72 883.23 1647.68 873.212 1651.6 863.353C1655.63 853.388 1661.88 844.165 1670.36 835.684L1683.24 822.804L1693.42 832.981L1681.02 845.384C1674.66 851.957 1669.83 859.218 1666.55 867.169C1663.26 874.908 1661.62 882.912 1661.62 891.18C1661.51 899.343 1663.05 907.347 1666.23 915.192C1669.52 922.93 1674.34 929.98 1680.7 936.34C1687.27 942.913 1694.43 947.842 1702.17 951.129C1709.9 954.203 1717.91 955.74 1726.18 955.74C1734.45 955.74 1742.5 954.15 1750.35 950.97C1758.19 947.577 1765.35 942.648 1771.81 936.181L1784.22 923.778L1794.55 934.114L1781.67 946.994Z" fill="#1A1A1A"/>
<path d="M1804.24 924.426L1723.14 843.328L1734.28 832.197L1815.37 913.295L1804.24 924.426ZM1714.08 823.133C1711.96 825.254 1709.31 826.314 1706.13 826.314C1702.95 826.314 1700.3 825.254 1698.18 823.133C1695.95 820.907 1694.89 818.257 1695 815.183C1695 812.002 1696.06 809.352 1698.18 807.232C1700.41 805.006 1703.06 803.946 1706.13 804.052C1709.2 803.946 1711.85 805.006 1714.08 807.232C1716.2 809.352 1717.26 812.002 1717.26 815.183C1717.37 818.257 1716.31 820.907 1714.08 823.133Z" fill="#1A1A1A"/>
<path d="M1849 879.669C1841.79 886.877 1834.05 890.482 1825.78 890.482C1817.62 890.376 1809.99 886.771 1802.88 879.669L1724.49 801.275L1735.62 790.144L1812.74 867.266C1817.41 871.93 1822.18 874.368 1827.05 874.58C1832.04 874.686 1836.86 872.407 1841.53 867.743L1857.11 852.159L1866.81 861.859L1849 879.669ZM1754.54 831.328L1744.84 821.628L1786.03 780.444L1795.73 790.144L1754.54 831.328Z" fill="#1A1A1A"/>
<path d="M1877.04 851.624L1819 793.584C1811.79 786.375 1808.19 778.742 1808.19 770.685C1808.19 762.417 1811.79 754.678 1819 747.469L1833 733.476L1842.7 743.176L1830.93 754.943C1826.27 759.607 1823.99 764.431 1824.09 769.413C1824.3 774.29 1826.74 779.06 1831.41 783.725L1888.17 840.493L1877.04 851.624Z" fill="#1A1A1A"/>
</g>
<g filter="url(#filter6_dii_106_137)">
<path d="M1325.31 1098.98L1441.98 982.305L1652.7 1193.02C1660.9 1201.22 1660.9 1214.52 1652.7 1222.72L1565.72 1309.7C1557.52 1317.9 1544.22 1317.9 1536.02 1309.7L1325.31 1098.98Z" fill="#F8F8F8"/>
<path d="M1320.36 1098.27C1309.81 1087.73 1309.81 1070.63 1320.36 1060.09L1403.79 976.648C1414.34 966.104 1431.43 966.104 1441.98 976.648L1444.81 979.477L1323.18 1101.1L1320.36 1098.27Z" fill="#F8F8F8"/>
<path opacity="0.4" d="M1398.24 998.482L1410.48 986.239C1411.33 985.393 1412.7 985.393 1413.55 986.239L1418.29 990.982C1419.14 991.829 1419.14 993.2 1418.29 994.047L1406.05 1006.29C1405.2 1007.14 1403.83 1007.14 1402.98 1006.29L1398.24 1001.55C1397.39 1000.7 1397.39 999.328 1398.24 998.482Z" stroke="#151515"/>
<path opacity="0.5" d="M1415.5 986.027L1418.5 989.032C1418.84 988.189 1418.63 987.215 1417.97 986.559C1417.31 985.903 1416.34 985.693 1415.5 986.027" fill="#151515"/>
<path d="M1399.9 1001C1399.38 1000.48 1399.38 999.638 1399.9 999.118L1411.12 987.901C1411.64 987.38 1412.48 987.38 1413 987.901L1416.63 991.525C1417.15 992.046 1417.15 992.89 1416.63 993.411L1405.41 1004.63C1404.89 1005.15 1404.05 1005.15 1403.53 1004.63L1399.9 1001Z" fill="#151515"/>
<path fill-rule="evenodd" clip-rule="evenodd" d="M1384.06 1015.99C1385.67 1014.37 1387.86 1013.44 1390.16 1013.39C1390.34 1013.39 1390.48 1013.25 1390.48 1013.08L1390.46 1011.37C1390.46 1011.28 1390.42 1011.19 1390.36 1011.13C1390.3 1011.07 1390.21 1011.03 1390.12 1011.03C1384.06 1011.13 1379.2 1015.99 1379.1 1022.05C1379.1 1022.14 1379.14 1022.23 1379.2 1022.29C1379.26 1022.36 1379.35 1022.39 1379.44 1022.39L1381.14 1022.41C1381.32 1022.41 1381.46 1022.27 1381.46 1022.1C1381.51 1019.79 1382.44 1017.61 1384.06 1015.99ZM1386.85 1018.79C1387.74 1017.9 1388.95 1017.38 1390.23 1017.34C1390.4 1017.34 1390.54 1017.2 1390.54 1017.02L1390.5 1015.29C1390.5 1015.2 1390.46 1015.11 1390.39 1015.05C1390.33 1014.98 1390.24 1014.94 1390.15 1014.94C1386.2 1015.02 1383.09 1018.13 1383.01 1022.08C1383.01 1022.17 1383.05 1022.26 1383.11 1022.33C1383.18 1022.39 1383.27 1022.43 1383.36 1022.43L1385.09 1022.47C1385.26 1022.47 1385.41 1022.34 1385.41 1022.16C1385.45 1020.88 1385.96 1019.68 1386.85 1018.79ZM1390.6 1019.13C1390.66 1019.2 1390.7 1019.28 1390.7 1019.37L1390.73 1022.34C1390.73 1022.42 1390.7 1022.51 1390.64 1022.57C1390.58 1022.63 1390.49 1022.66 1390.4 1022.66L1387.44 1022.63C1387.35 1022.63 1387.26 1022.6 1387.2 1022.53C1387.14 1022.47 1387.11 1022.38 1387.11 1022.29C1387.25 1020.55 1388.62 1019.18 1390.35 1019.04C1390.45 1019.04 1390.53 1019.07 1390.6 1019.13Z" fill="#151515"/>
<path fill-rule="evenodd" clip-rule="evenodd" d="M1374.15 1024.53C1373.74 1024.11 1373.08 1024.1 1372.67 1024.5L1371.95 1025.23C1371.54 1025.63 1371.55 1026.29 1371.97 1026.71L1378.48 1033.22C1378.9 1033.64 1379.56 1033.65 1379.96 1033.24L1380.69 1032.52C1381.09 1032.11 1381.08 1031.45 1380.66 1031.04L1374.15 1024.53ZM1370.3 1030.38L1371.03 1029.65C1371.43 1029.25 1372.09 1029.26 1372.51 1029.68L1377.27 1034.43C1377.68 1034.85 1377.69 1035.51 1377.29 1035.91L1376.56 1036.64C1376.16 1037.04 1375.5 1037.03 1375.08 1036.62L1370.33 1031.86C1369.91 1031.44 1369.9 1030.78 1370.3 1030.38ZM1369.39 1034.8L1368.66 1035.53C1368.26 1035.93 1368.27 1036.59 1368.68 1037.01L1371.69 1040.01C1372.1 1040.43 1372.76 1040.44 1373.17 1040.04L1373.89 1039.31C1374.3 1038.91 1374.29 1038.25 1373.87 1037.83L1370.87 1034.83C1370.45 1034.41 1369.79 1034.4 1369.39 1034.8ZM1368.97 1039.73C1368.56 1039.31 1367.89 1039.3 1367.49 1039.7L1366.76 1040.43C1366.36 1040.83 1366.37 1041.49 1366.79 1041.91L1368.29 1043.41C1368.71 1043.83 1369.37 1043.84 1369.77 1043.43L1370.5 1042.71C1370.9 1042.3 1370.89 1041.64 1370.47 1041.23L1368.97 1039.73Z" fill="#151515"/>
<path d="M1329.05 1065.82C1329.34 1065.53 1329.66 1065.31 1329.99 1065.16C1330.33 1065 1330.66 1064.94 1330.99 1064.97C1331.31 1065.01 1331.61 1065.16 1331.89 1065.43C1332.09 1065.63 1332.23 1065.85 1332.3 1066.08C1332.37 1066.31 1332.4 1066.55 1332.38 1066.8C1332.35 1067.05 1332.3 1067.3 1332.21 1067.56C1332.48 1067.48 1332.76 1067.42 1333.05 1067.38C1333.34 1067.35 1333.62 1067.36 1333.88 1067.43C1334.16 1067.49 1334.4 1067.64 1334.63 1067.86C1334.91 1068.14 1335.08 1068.46 1335.13 1068.82C1335.19 1069.17 1335.14 1069.54 1334.99 1069.91C1334.84 1070.29 1334.59 1070.65 1334.24 1071C1333.86 1071.38 1333.48 1071.65 1333.11 1071.81C1332.74 1071.96 1332.38 1072.01 1332.04 1071.95C1331.7 1071.88 1331.39 1071.71 1331.11 1071.43C1330.88 1071.2 1330.72 1070.96 1330.64 1070.7C1330.56 1070.44 1330.53 1070.18 1330.55 1069.91C1330.58 1069.64 1330.63 1069.37 1330.72 1069.11C1330.48 1069.16 1330.23 1069.19 1329.99 1069.2C1329.75 1069.2 1329.51 1069.16 1329.29 1069.08C1329.06 1069 1328.85 1068.85 1328.65 1068.65C1328.38 1068.39 1328.23 1068.09 1328.2 1067.76C1328.17 1067.43 1328.24 1067.09 1328.4 1066.76C1328.55 1066.42 1328.77 1066.11 1329.05 1065.82ZM1332.04 1070.38C1332.22 1070.56 1332.43 1070.65 1332.68 1070.64C1332.93 1070.63 1333.18 1070.49 1333.44 1070.23C1333.7 1069.97 1333.85 1069.72 1333.86 1069.47C1333.88 1069.23 1333.8 1069.01 1333.61 1068.82C1333.48 1068.69 1333.33 1068.62 1333.16 1068.6C1332.99 1068.58 1332.81 1068.58 1332.62 1068.62C1332.43 1068.65 1332.24 1068.7 1332.06 1068.74L1331.92 1068.79C1331.84 1069 1331.78 1069.21 1331.75 1069.4C1331.73 1069.59 1331.74 1069.77 1331.78 1069.93C1331.82 1070.1 1331.91 1070.25 1332.04 1070.38ZM1329.83 1066.61C1329.65 1066.78 1329.55 1066.97 1329.53 1067.18C1329.5 1067.38 1329.57 1067.57 1329.73 1067.73C1329.85 1067.85 1329.98 1067.92 1330.12 1067.95C1330.26 1067.98 1330.41 1067.98 1330.57 1067.95C1330.73 1067.92 1330.89 1067.88 1331.06 1067.82C1331.11 1067.67 1331.15 1067.51 1331.18 1067.36C1331.21 1067.2 1331.21 1067.05 1331.18 1066.91C1331.15 1066.76 1331.08 1066.63 1330.96 1066.51C1330.79 1066.35 1330.61 1066.28 1330.4 1066.31C1330.2 1066.33 1330.01 1066.43 1329.83 1066.61ZM1336.27 1067.85C1336.05 1067.63 1335.96 1067.42 1335.99 1067.22C1336.02 1067.01 1336.12 1066.82 1336.29 1066.66C1336.45 1066.49 1336.63 1066.4 1336.84 1066.37C1337.05 1066.33 1337.26 1066.43 1337.47 1066.64C1337.68 1066.85 1337.77 1067.06 1337.74 1067.27C1337.72 1067.48 1337.62 1067.67 1337.46 1067.83C1337.29 1068 1337.1 1068.1 1336.89 1068.12C1336.68 1068.15 1336.47 1068.06 1336.27 1067.85ZM1333.41 1065C1333.2 1064.78 1333.1 1064.57 1333.13 1064.37C1333.17 1064.16 1333.27 1063.97 1333.43 1063.8C1333.6 1063.64 1333.78 1063.54 1333.99 1063.51C1334.19 1063.48 1334.41 1063.57 1334.62 1063.79C1334.83 1064 1334.92 1064.21 1334.9 1064.42C1334.87 1064.63 1334.77 1064.81 1334.61 1064.98C1334.44 1065.15 1334.25 1065.24 1334.04 1065.27C1333.83 1065.3 1333.62 1065.21 1333.41 1065ZM1341.46 1063.65L1340.39 1064.71L1337.47 1061.79C1337.39 1061.71 1337.29 1061.61 1337.18 1061.49C1337.06 1061.37 1336.94 1061.24 1336.82 1061.12C1336.7 1060.98 1336.59 1060.87 1336.49 1060.76C1336.5 1060.81 1336.5 1060.92 1336.49 1061.07C1336.49 1061.22 1336.48 1061.35 1336.47 1061.48L1336.36 1062.52L1335.2 1062.4L1335.53 1059.48L1336.41 1058.6L1341.46 1063.65ZM1341.64 1057.01C1341.95 1056.7 1342.28 1056.49 1342.64 1056.37C1343 1056.24 1343.36 1056.22 1343.73 1056.31C1344.09 1056.4 1344.44 1056.62 1344.78 1056.95C1345.14 1057.31 1345.38 1057.7 1345.49 1058.12C1345.61 1058.53 1345.58 1058.96 1345.42 1059.4C1345.27 1059.83 1344.97 1060.27 1344.52 1060.72C1344.26 1060.98 1343.99 1061.21 1343.7 1061.4C1343.43 1061.59 1343.16 1061.72 1342.89 1061.81L1341.97 1060.88C1342.23 1060.8 1342.52 1060.67 1342.83 1060.49C1343.14 1060.31 1343.4 1060.11 1343.62 1059.89C1343.83 1059.68 1343.98 1059.47 1344.07 1059.27C1344.16 1059.07 1344.18 1058.87 1344.14 1058.68C1344.09 1058.49 1343.98 1058.3 1343.79 1058.11C1343.55 1057.87 1343.28 1057.76 1342.98 1057.79C1342.68 1057.83 1342.36 1058.02 1342.02 1058.36C1341.89 1058.49 1341.76 1058.64 1341.65 1058.81C1341.53 1058.98 1341.44 1059.12 1341.37 1059.24L1340.72 1059.43L1338.34 1056.67L1341.07 1053.93L1341.98 1054.84L1340.18 1056.64L1341.07 1057.73C1341.14 1057.63 1341.2 1057.53 1341.28 1057.42C1341.36 1057.31 1341.48 1057.18 1341.64 1057.01Z" fill="#151515"/>
<path d="M1388.24 992.204L1335.2 1045.24V1045.24C1345.36 1055.39 1361.82 1055.39 1371.97 1045.24L1388.24 1028.97C1398.39 1018.82 1398.39 1002.36 1388.24 992.204V992.204Z" fill="#222222"/>
<rect x="1348.64" y="1045.94" width="54" height="4" rx="2" transform="rotate(-45 1348.64 1045.94)" fill="#393939"/>
<circle cx="1392.48" cy="1004.93" r="2" transform="rotate(-45 1392.48 1004.93)" fill="#393939"/>
<rect x="1295.61" y="1079.89" width="180" height="360" rx="49.5" transform="rotate(-45 1295.61 1079.89)" stroke="#222222" stroke-width="15"/>
</g>
<path d="M1402.3 1123.39C1397.77 1118.74 1394.39 1113.75 1392.15 1108.42C1390.03 1103.08 1388.97 1097.66 1388.97 1092.16C1389.02 1086.71 1390.11 1081.43 1392.23 1076.33C1394.41 1071.16 1397.57 1066.52 1401.7 1062.39C1405.83 1058.26 1410.45 1055.13 1415.55 1053.01C1420.65 1050.89 1425.9 1049.83 1431.29 1049.83C1436.8 1049.83 1442.22 1050.89 1447.56 1053.01C1452.95 1055.19 1457.94 1058.57 1462.53 1063.16L1469.49 1070.13L1463.99 1075.64L1457.28 1068.93C1453.72 1065.49 1449.79 1062.88 1445.49 1061.1C1441.3 1059.32 1436.97 1058.43 1432.5 1058.43C1428.08 1058.37 1423.75 1059.2 1419.51 1060.93C1415.32 1062.7 1411.51 1065.31 1408.06 1068.75C1404.51 1072.31 1401.84 1076.18 1400.06 1080.37C1398.4 1084.56 1397.57 1088.89 1397.57 1093.36C1397.57 1097.83 1398.43 1102.19 1400.15 1106.44C1401.99 1110.68 1404.65 1114.55 1408.15 1118.05L1414.86 1124.76L1409.27 1130.36L1402.3 1123.39Z" fill="#25DD1F"/>
<path d="M1414.51 1135.6L1458.39 1091.72L1464.41 1097.74L1420.53 1141.62L1414.51 1135.6ZM1469.32 1086.82C1468.17 1085.67 1467.6 1084.23 1467.6 1082.51C1467.6 1080.79 1468.17 1079.36 1469.32 1078.21C1470.52 1077.01 1471.95 1076.43 1473.62 1076.49C1475.34 1076.49 1476.77 1077.07 1477.92 1078.21C1479.12 1079.42 1479.7 1080.85 1479.64 1082.51C1479.7 1084.18 1479.12 1085.61 1477.92 1086.82C1476.77 1087.96 1475.34 1088.54 1473.62 1088.54C1471.95 1088.59 1470.52 1088.02 1469.32 1086.82Z" fill="#25DD1F"/>
<path d="M1438.73 1159.81C1434.83 1155.91 1432.88 1151.73 1432.88 1147.25C1432.93 1142.84 1434.88 1138.71 1438.73 1134.86L1481.14 1092.45L1487.17 1098.47L1445.44 1140.2C1442.91 1142.72 1441.6 1145.3 1441.48 1147.94C1441.42 1150.64 1442.66 1153.25 1445.18 1155.77L1453.61 1164.2L1448.36 1169.45L1438.73 1159.81ZM1464.88 1108.71L1470.13 1103.46L1492.41 1125.74L1487.17 1130.99L1464.88 1108.71Z" fill="#25DD1F"/>
<path d="M1453.9 1174.99L1485.3 1143.58C1489.2 1139.68 1493.33 1137.73 1497.69 1137.73C1502.17 1137.73 1506.35 1139.68 1510.25 1143.58L1517.83 1151.16L1512.58 1156.4L1506.21 1150.04C1503.69 1147.51 1501.08 1146.28 1498.38 1146.34C1495.74 1146.45 1493.16 1147.77 1490.64 1150.3L1459.92 1181.01L1453.9 1174.99Z" fill="#25DD1F"/>
<rect x="638.698" y="906" width="746" height="450" rx="38" transform="rotate(45 638.698 906)" fill="#3D3D3D"/>
<mask id="mask3_106_137" style="mask-type:alpha" maskUnits="userSpaceOnUse" x="361" y="947" width="764" height="764">
<rect x="635.163" y="946.305" width="694" height="389" rx="3" transform="rotate(45 635.163 946.305)" fill="#8F8F8F"/>
</mask>
<g mask="url(#mask3_106_137)">
<rect x="635.163" y="946.305" width="694" height="389" rx="3" transform="rotate(45 635.163 946.305)" fill="white"/>
<g filter="url(#filter7_d_106_137)">
<rect x="635.163" y="946.305" width="694" height="40" transform="rotate(45 635.163 946.305)" fill="#ECECEC"/>
<rect x="645.062" y="970.347" width="19" height="19" transform="rotate(45 645.062 970.347)" fill="white"/>
<circle cx="667.69" cy="1006.41" r="9.5" transform="rotate(45 667.69 1006.41)" fill="white"/>
<path d="M695.267 1020.55L689.61 1041.76L674.053 1026.21L695.267 1020.55Z" fill="white"/>
<rect x="659.911" y="983.782" width="608" height="22" rx="10" transform="rotate(45 659.911 983.782)" fill="white"/>
</g>
</g>
</g>
<defs>
<filter id="filter0_d_106_137" x="1102.81" y="32.3057" width="543.016" height="543.016" filterUnits="userSpaceOnUse" color-interpolation-filters="sRGB">
<feFlood flood-opacity="0" result="BackgroundImageFix"/>
<feColorMatrix in="SourceAlpha" type="matrix" values="0 0 0 0 0 0 0 0 0 0 0 0 0 0 0 0 0 0 127 0" result="hardAlpha"/>
<feOffset dy="4"/>
<feGaussianBlur stdDeviation="6"/>
<feColorMatrix type="matrix" values="0 0 0 0 0 0 0 0 0 0 0 0 0 0 0 0 0 0 0.14 0"/>
<feBlend mode="normal" in2="BackgroundImageFix" result="effect1_dropShadow_106_137"/>
<feBlend mode="normal" in="SourceGraphic" in2="effect1_dropShadow_106_137" result="shape"/>
</filter>
<filter id="filter1_di_106_137" x="405.5" y="263.5" width="850.778" height="850.777" filterUnits="userSpaceOnUse" color-interpolation-filters="sRGB">
<feFlood flood-opacity="0" result="BackgroundImageFix"/>
<feColorMatrix in="SourceAlpha" type="matrix" values="0 0 0 0 0 0 0 0 0 0 0 0 0 0 0 0 0 0 127 0" result="hardAlpha"/>
<feOffset dy="4"/>
<feGaussianBlur stdDeviation="15.5"/>
<feColorMatrix type="matrix" values="0 0 0 0 0 0 0 0 0 0 0 0 0 0 0 0 0 0 0.26 0"/>
<feBlend mode="normal" in2="BackgroundImageFix" result="effect1_dropShadow_106_137"/>
<feBlend mode="normal" in="SourceGraphic" in2="effect1_dropShadow_106_137" result="shape"/>
<feColorMatrix in="SourceAlpha" type="matrix" values="0 0 0 0 0 0 0 0 0 0 0 0 0 0 0 0 0 0 127 0" result="hardAlpha"/>
<feOffset dx="-6" dy="-10"/>
<feGaussianBlur stdDeviation="3.5"/>
<feComposite in2="hardAlpha" operator="arithmetic" k2="-1" k3="1"/>
<feColorMatrix type="matrix" values="0 0 0 0 0 0 0 0 0 0 0 0 0 0 0 0 0 0 0.08 0"/>
<feBlend mode="normal" in2="shape" result="effect2_innerShadow_106_137"/>
</filter>
<filter id="filter2_d_106_137" x="407.429" y="264.368" width="461.193" height="461.193" filterUnits="userSpaceOnUse" color-interpolation-filters="sRGB">
<feFlood flood-opacity="0" result="BackgroundImageFix"/>
<feColorMatrix in="SourceAlpha" type="matrix" values="0 0 0 0 0 0 0 0 0 0 0 0 0 0 0 0 0 0 127 0" result="hardAlpha"/>
<feOffset dy="4"/>
<feGaussianBlur stdDeviation="6"/>
<feColorMatrix type="matrix" values="0 0 0 0 0 0 0 0 0 0 0 0 0 0 0 0 0 0 0.14 0"/>
<feBlend mode="normal" in2="BackgroundImageFix" result="effect1_dropShadow_106_137"/>
<feBlend mode="normal" in="SourceGraphic" in2="effect1_dropShadow_106_137" result="shape"/>
</filter>
<filter id="filter3_dii_106_137" x="887" y="83" width="451.051" height="451.051" filterUnits="userSpaceOnUse" color-interpolation-filters="sRGB">
<feFlood flood-opacity="0" result="BackgroundImageFix"/>
<feColorMatrix in="SourceAlpha" type="matrix" values="0 0 0 0 0 0 0 0 0 0 0 0 0 0 0 0 0 0 127 0" result="hardAlpha"/>
<feOffset dy="4"/>
<feGaussianBlur stdDeviation="12"/>
<feColorMatrix type="matrix" values="0 0 0 0 0 0 0 0 0 0 0 0 0 0 0 0 0 0 0.35 0"/>
<feBlend mode="normal" in2="BackgroundImageFix" result="effect1_dropShadow_106_137"/>
<feBlend mode="normal" in="SourceGraphic" in2="effect1_dropShadow_106_137" result="shape"/>
<feColorMatrix in="SourceAlpha" type="matrix" values="0 0 0 0 0 0 0 0 0 0 0 0 0 0 0 0 0 0 127 0" result="hardAlpha"/>
<feOffset dx="-9" dy="-10"/>
<feGaussianBlur stdDeviation="5"/>
<feComposite in2="hardAlpha" operator="arithmetic" k2="-1" k3="1"/>
<feColorMatrix type="matrix" values="0 0 0 0 0.916667 0 0 0 0 0.916667 0 0 0 0 0.916667 0 0 0 0.19 0"/>
<feBlend mode="normal" in2="shape" result="effect2_innerShadow_106_137"/>
<feColorMatrix in="SourceAlpha" type="matrix" values="0 0 0 0 0 0 0 0 0 0 0 0 0 0 0 0 0 0 127 0" result="hardAlpha"/>
<feOffset dx="-3" dy="-7"/>
<feGaussianBlur stdDeviation="2.5"/>
<feComposite in2="hardAlpha" operator="arithmetic" k2="-1" k3="1"/>
<feColorMatrix type="matrix" values="0 0 0 0 0.233333 0 0 0 0 0.233333 0 0 0 0 0.233333 0 0 0 0.17 0"/>
<feBlend mode="normal" in2="effect2_innerShadow_106_137" result="effect3_innerShadow_106_137"/>
</filter>
<filter id="filter4_di_106_137" x="966" y="754" width="451.051" height="451.051" filterUnits="userSpaceOnUse" color-interpolation-filters="sRGB">
<feFlood flood-opacity="0" result="BackgroundImageFix"/>
<feColorMatrix in="SourceAlpha" type="matrix" values="0 0 0 0 0 0 0 0 0 0 0 0 0 0 0 0 0 0 127 0" result="hardAlpha"/>
<feOffset dx="1" dy="4"/>
<feGaussianBlur stdDeviation="12"/>
<feColorMatrix type="matrix" values="0 0 0 0 0 0 0 0 0 0 0 0 0 0 0 0 0 0 0.35 0"/>
<feBlend mode="normal" in2="BackgroundImageFix" result="effect1_dropShadow_106_137"/>
<feBlend mode="normal" in="SourceGraphic" in2="effect1_dropShadow_106_137" result="shape"/>
<feColorMatrix in="SourceAlpha" type="matrix" values="0 0 0 0 0 0 0 0 0 0 0 0 0 0 0 0 0 0 127 0" result="hardAlpha"/>
<feOffset dx="-4" dy="-9"/>
<feGaussianBlur stdDeviation="3.5"/>
<feComposite in2="hardAlpha" operator="arithmetic" k2="-1" k3="1"/>
<feColorMatrix type="matrix" values="0 0 0 0 0 0 0 0 0 0 0 0 0 0 0 0 0 0 0.19 0"/>
<feBlend mode="normal" in2="shape" result="effect2_innerShadow_106_137"/>
</filter>
<filter id="filter5_d_106_137" x="1783.72" y="379.429" width="461.193" height="461.193" filterUnits="userSpaceOnUse" color-interpolation-filters="sRGB">
<feFlood flood-opacity="0" result="BackgroundImageFix"/>
<feColorMatrix in="SourceAlpha" type="matrix" values="0 0 0 0 0 0 0 0 0 0 0 0 0 0 0 0 0 0 127 0" result="hardAlpha"/>
<feOffset dy="4"/>
<feGaussianBlur stdDeviation="6"/>
<feColorMatrix type="matrix" values="0 0 0 0 0 0 0 0 0 0 0 0 0 0 0 0 0 0 0.14 0"/>
<feBlend mode="normal" in2="BackgroundImageFix" result="effect1_dropShadow_106_137"/>
<feBlend mode="normal" in="SourceGraphic" in2="effect1_dropShadow_106_137" result="shape"/>
</filter>
<filter id="filter6_dii_106_137" x="1261" y="922" width="451.051" height="451.051" filterUnits="userSpaceOnUse" color-interpolation-filters="sRGB">
<feFlood flood-opacity="0" result="BackgroundImageFix"/>
<feColorMatrix in="SourceAlpha" type="matrix" values="0 0 0 0 0 0 0 0 0 0 0 0 0 0 0 0 0 0 127 0" result="hardAlpha"/>
<feOffset dy="4"/>
<feGaussianBlur stdDeviation="12"/>
<feColorMatrix type="matrix" values="0 0 0 0 0 0 0 0 0 0 0 0 0 0 0 0 0 0 0.35 0"/>
<feBlend mode="normal" in2="BackgroundImageFix" result="effect1_dropShadow_106_137"/>
<feBlend mode="normal" in="SourceGraphic" in2="effect1_dropShadow_106_137" result="shape"/>
<feColorMatrix in="SourceAlpha" type="matrix" values="0 0 0 0 0 0 0 0 0 0 0 0 0 0 0 0 0 0 127 0" result="hardAlpha"/>
<feOffset dx="-9" dy="-10"/>
<feGaussianBlur stdDeviation="5"/>
<feComposite in2="hardAlpha" operator="arithmetic" k2="-1" k3="1"/>
<feColorMatrix type="matrix" values="0 0 0 0 0.916667 0 0 0 0 0.916667 0 0 0 0 0.916667 0 0 0 0.19 0"/>
<feBlend mode="normal" in2="shape" result="effect2_innerShadow_106_137"/>
<feColorMatrix in="SourceAlpha" type="matrix" values="0 0 0 0 0 0 0 0 0 0 0 0 0 0 0 0 0 0 127 0" result="hardAlpha"/>
<feOffset dx="-3" dy="-7"/>
<feGaussianBlur stdDeviation="2.5"/>
<feComposite in2="hardAlpha" operator="arithmetic" k2="-1" k3="1"/>
<feColorMatrix type="matrix" values="0 0 0 0 0.233333 0 0 0 0 0.233333 0 0 0 0 0.233333 0 0 0 0.17 0"/>
<feBlend mode="normal" in2="effect2_innerShadow_106_137" result="effect3_innerShadow_106_137"/>
</filter>
<filter id="filter7_d_106_137" x="594.878" y="938.305" width="543.016" height="543.017" filterUnits="userSpaceOnUse" color-interpolation-filters="sRGB">
<feFlood flood-opacity="0" result="BackgroundImageFix"/>
<feColorMatrix in="SourceAlpha" type="matrix" values="0 0 0 0 0 0 0 0 0 0 0 0 0 0 0 0 0 0 127 0" result="hardAlpha"/>
<feOffset dy="4"/>
<feGaussianBlur stdDeviation="6"/>
<feColorMatrix type="matrix" values="0 0 0 0 0 0 0 0 0 0 0 0 0 0 0 0 0 0 0.14 0"/>
<feBlend mode="normal" in2="BackgroundImageFix" result="effect1_dropShadow_106_137"/>
<feBlend mode="normal" in="SourceGraphic" in2="effect1_dropShadow_106_137" result="shape"/>
</filter>
<linearGradient id="paint0_linear_106_137" x1="670" y1="620.365" x2="670" y2="1269.37" gradientUnits="userSpaceOnUse">
<stop stop-color="#F5F5F5"/>
<stop offset="1" stop-color="white"/>
</linearGradient>
<clipPath id="clip0_106_137">
<rect width="1920" height="1080.03" fill="white"/>
</clipPath>
<clipPath id="clip1_106_137">
<path d="M1235.07 814.305L1351.75 930.978L1141.03 1141.7C1132.83 1149.9 1119.53 1149.9 1111.33 1141.7L1024.36 1054.72C1016.15 1046.52 1016.15 1033.22 1024.36 1025.02L1235.07 814.305Z" fill="white"/>
</clipPath>
</defs>
</svg>
